<svg width="36" height="20" viewBox="0 0 36 20" fill="none" xmlns="http://www.w3.org/2000/svg">
<path d="M0 0H36L29.6471 20H6.35294L0 0Z" fill="url(#paint0_linear_2668_4151)"/>
<path d="M0 0H36L29.6471 20H6.35294L0 0Z" fill="url(#paint1_linear_2668_4151)"/>
<path d="M14 13.6779L17.5824 10.4993C17.8752 10.2368 18.1223 10.0024 18.3235 9.79602C18.534 9.58979 18.7033 9.39755 18.8314 9.21941C18.9687 9.03191 19.0647 8.84903 19.1196 8.67089C19.1837 8.49275 19.2158 8.30524 19.2158 8.10826C19.2158 7.63013 19.0738 7.24102 18.7902 6.94093C18.5158 6.64083 18.1314 6.4909 17.6373 6.4909C17.0517 6.4909 16.5941 6.65493 16.2647 6.98312C15.9444 7.30195 15.7843 7.79418 15.7843 8.45992H14.1373C14.1373 7.94423 14.2196 7.47535 14.3844 7.05341C14.5491 6.6221 14.7824 6.25646 15.0844 5.95636C15.3863 5.64701 15.7523 5.41258 16.1824 5.25317C16.6125 5.08439 17.0974 5 17.6373 5C18.1588 5 18.6209 5.07966 19.0235 5.23907C19.4262 5.38911 19.7602 5.60482 20.0255 5.88608C20.3 6.15797 20.5059 6.48616 20.6432 6.87064C20.7896 7.24565 20.8628 7.65823 20.8628 8.10826C20.8628 8.44581 20.8079 8.76464 20.6981 9.06474C20.5974 9.36472 20.451 9.65071 20.2588 9.92261C20.0758 10.1946 19.8517 10.4618 19.5863 10.7243C19.3301 10.9868 19.0464 11.2447 18.7353 11.4979L16.2922 13.5373H21V15H14V13.6779Z" fill="white"/>
<defs>
<linearGradient id="paint0_linear_2668_4151" x1="9.28873" y1="-4.17191" x2="9.28873" y2="19.9301" gradientUnits="userSpaceOnUse">
<stop stop-color="#BC22C4"/>
<stop offset="1" stop-color="#4D7FFF"/>
</linearGradient>
<linearGradient id="paint1_linear_2668_4151" x1="-1.60076" y1="10.4548" x2="37.4272" y2="10.4548" gradientUnits="userSpaceOnUse">
<stop stop-color="#BC22C4"/>
<stop offset="1" stop-color="#4D7FFF"/>
</linearGradient>
</defs>
</svg>
