{
	"asset":{
		"generator":"Khronos glTF Blender I/O v4.1.63",
		"version":"2.0"
	},
	"scene":0,
	"scenes":[
		{
			"name":"Scene",
			"nodes":[
				5,
				14
			]
		}
	],
	"nodes":[
		{
			"mesh":0,
			"name":"back-screen",
			"rotation":[
				-0.70710688829422,
				0,
				0,
				0.7071066498756409
			],
			"scale":[
				1.2742573022842407,
				0.9080935120582581,
				1
			],
			"translation":[
				-0.006260429508984089,
				3.72721529006958,
				3.166182279586792
			]
		},
		{
			"mesh":1,
			"name":"Boat",
			"rotation":[
				0.70710688829422,
				0,
				0,
				0.7071066498756409
			],
			"translation":[
				0,
				-0.4258938133716583,
				3.8960912227630615
			]
		},
		{
			"mesh":2,
			"name":"captain-screen",
			"rotation":[
				-0.70710688829422,
				0,
				0,
				0.7071066498756409
			],
			"scale":[
				1.2143291234970093,
				0.7702869772911072,
				1
			],
			"translation":[
				0.038477227091789246,
				-2.5450098514556885,
				3.210139274597168
			]
		},
		{
			"mesh":3,
			"name":"front-screen",
			"rotation":[
				-0.70710688829422,
				0,
				0,
				0.7071066498756409
			],
			"scale":[
				1.2347203493118286,
				0.8994154930114746,
				1
			],
			"translation":[
				0.03912334144115448,
				-3.9042410850524902,
				3.224741220474243
			]
		},
		{
			"mesh":4,
			"name":"middle-screen",
			"rotation":[
				-0.70710688829422,
				0,
				0,
				0.7071066498756409
			],
			"scale":[
				1.2491216659545898,
				0.637501060962677,
				1
			],
			"translation":[
				0.019971581175923347,
				2.1963422298431396,
				3.2050280570983887
			]
		},
		{
			"children":[
				0,
				1,
				2,
				3,
				4
			],
			"name":"sinichka_v2",
			"rotation":[
				-0.70710688829422,
				0,
				0,
				0.7071066498756409
			],
			"scale":[
				0.045080479234457016,
				0.045080482959747314,
				0.045080482959747314
			],
			"translation":[
				-0.00038908509304746985,
				0.17482133209705353,
				-0.010161200538277626
			]
		},
		{
			"mesh":5,
			"name":"Mesh_2.001",
			"scale":[
				0.045080479234457016,
				0.04508048668503761,
				0.04508048668503761
			],
			"translation":[
				-0.003991589415818453,
				0.3504590094089508,
				0.021815042942762375
			]
		},
		{
			"mesh":6,
			"name":"Mesh_2.002",
			"rotation":[
				-0.70710688829422,
				0,
				0,
				0.7071066498756409
			],
			"scale":[
				0.045080479234457016,
				0.045080479234457016,
				0.045080479234457016
			],
			"translation":[
				-0.003991589415818453,
				0.17482133209705353,
				0.002615568693727255
			]
		},
		{
			"mesh":7,
			"name":"Mesh_2.003",
			"rotation":[
				-0.70710688829422,
				0,
				0,
				0.7071066498756409
			],
			"scale":[
				0.045080479234457016,
				0.045080479234457016,
				0.045080479234457016
			],
			"translation":[
				-0.004420108627527952,
				0.28598809242248535,
				0.19700908660888672
			]
		},
		{
			"mesh":8,
			"name":"Mesh_2.004",
			"translation":[
				-0.014053940773010254,
				-4.3121442794799805,
				2.465961217880249
			]
		},
		{
			"children":[
				9
			],
			"name":"sinichka_v2.002",
			"rotation":[
				-0.70710688829422,
				0,
				0,
				0.7071066498756409
			],
			"scale":[
				0.045080479234457016,
				0.045080479234457016,
				0.045080479234457016
			],
			"translation":[
				0.012281285598874092,
				0.17482133209705353,
				0.002615568693727255
			]
		},
		{
			"mesh":9,
			"name":"Mesh_2.005"
		},
		{
			"mesh":10,
			"name":"Mesh_2.006",
			"rotation":[
				0.70710688829422,
				0,
				0,
				0.7071066498756409
			],
			"translation":[
				0,
				-0.42589378356933594,
				3.8960909843444824
			]
		},
		{
			"children":[
				11,
				12
			],
			"name":"sinichka_v2.003",
			"rotation":[
				-0.70710688829422,
				0,
				0,
				0.7071066498756409
			],
			"scale":[
				0.045080479234457016,
				0.045080479234457016,
				0.045080479234457016
			],
			"translation":[
				0.012076245620846748,
				0.17482133209705353,
				0.002615568693727255
			]
		},
		{
			"children":[
				6,
				7,
				8,
				10,
				13
			],
			"name":"untitled"
		}
	],
	"materials":[
		{
			"doubleSided":true,
			"emissiveFactor":[
				1,
				1,
				1
			],
			"emissiveTexture":{
				"index":0
			},
			"name":"inner-screen__invert.002",
			"pbrMetallicRoughness":{
				"baseColorTexture":{
					"index":1
				},
				"metallicFactor":0,
				"roughnessFactor":0.699999988079071
			}
		},
		{
			"alphaMode":"OPAQUE",
			"doubleSided":true,
			"name":"boat-texture.001",
			"normalTexture":{
				"index":2
			},
			"pbrMetallicRoughness":{
				"baseColorTexture":{
					"index":3
				},
				"metallicRoughnessTexture":{
					"index":4
				}
			}
		},
		{
			"doubleSided":true,
			"emissiveFactor":[
				1,
				1,
				1
			],
			"emissiveTexture":{
				"index":5
			},
			"name":"inner-screen__invert.003",
			"pbrMetallicRoughness":{
				"baseColorTexture":{
					"index":6
				},
				"metallicFactor":0,
				"roughnessFactor":0.699999988079071
			}
		},
		{
			"doubleSided":true,
			"emissiveFactor":[
				1,
				1,
				1
			],
			"emissiveTexture":{
				"index":7
			},
			"name":"front-screen0.001",
			"pbrMetallicRoughness":{
				"baseColorTexture":{
					"index":8
				}
			}
		},
		{
			"doubleSided":true,
			"emissiveFactor":[
				1,
				1,
				1
			],
			"emissiveTexture":{
				"index":9
			},
			"name":"inner-screen00.001",
			"pbrMetallicRoughness":{
				"baseColorTexture":{
					"index":10
				},
				"metallicFactor":0,
				"roughnessFactor":0.699999988079071
			}
		},
		{
			"alphaCutoff":0.5,
			"alphaMode":"MASK",
			"doubleSided":true,
			"name":"bike-texture0000000000000000 10000000000.002",
			"normalTexture":{
				"index":11
			},
			"pbrMetallicRoughness":{
				"baseColorTexture":{
					"index":12
				},
				"metallicRoughnessTexture":{
					"index":13
				}
			}
		},
		{
			"alphaCutoff":0.5,
			"alphaMode":"MASK",
			"doubleSided":true,
			"name":"bike-texture0000000000000000 10000000000.003",
			"normalTexture":{
				"index":14
			},
			"pbrMetallicRoughness":{
				"baseColorTexture":{
					"index":15
				},
				"metallicRoughnessTexture":{
					"index":16
				}
			}
		},
		{
			"alphaCutoff":0.5,
			"alphaMode":"MASK",
			"doubleSided":true,
			"name":"bike-texture0000000000000000.001 1.001",
			"normalTexture":{
				"index":17
			},
			"pbrMetallicRoughness":{
				"baseColorTexture":{
					"index":18
				},
				"metallicRoughnessTexture":{
					"index":19
				}
			}
		},
		{
			"alphaCutoff":0.5,
			"alphaMode":"MASK",
			"doubleSided":true,
			"name":"bike-texture0000000000000000.002 1.001",
			"normalTexture":{
				"index":20
			},
			"pbrMetallicRoughness":{
				"baseColorTexture":{
					"index":21
				},
				"metallicRoughnessTexture":{
					"index":22
				}
			}
		},
		{
			"alphaCutoff":0.5,
			"alphaMode":"MASK",
			"doubleSided":true,
			"name":"bike-texture0000000000000000.003 10000000000.002",
			"normalTexture":{
				"index":23
			},
			"pbrMetallicRoughness":{
				"baseColorTexture":{
					"index":24
				},
				"metallicRoughnessTexture":{
					"index":25
				}
			}
		},
		{
			"alphaCutoff":0.5,
			"alphaMode":"MASK",
			"doubleSided":true,
			"name":"bike-texture0000000000000000.003 10000000000.003",
			"normalTexture":{
				"index":26
			},
			"pbrMetallicRoughness":{
				"baseColorTexture":{
					"index":27
				},
				"metallicRoughnessTexture":{
					"index":28
				}
			}
		}
	],
	"meshes":[
		{
			"name":"Mesh_2.001",
			"primitives":[
				{
					"attributes":{
						"POSITION":0,
						"NORMAL":1,
						"TEXCOORD_0":2
					},
					"indices":3,
					"material":0
				}
			]
		},
		{
			"name":"Mesh_0.001",
			"primitives":[
				{
					"attributes":{
						"POSITION":4,
						"NORMAL":5,
						"TEXCOORD_0":6
					},
					"indices":7,
					"material":1
				}
			]
		},
		{
			"name":"Mesh_3.001",
			"primitives":[
				{
					"attributes":{
						"POSITION":8,
						"NORMAL":9,
						"TEXCOORD_0":10
					},
					"indices":3,
					"material":2
				}
			]
		},
		{
			"name":"Mesh_4.001",
			"primitives":[
				{
					"attributes":{
						"POSITION":11,
						"NORMAL":12,
						"TEXCOORD_0":13
					},
					"indices":3,
					"material":3
				}
			]
		},
		{
			"name":"Mesh_1.002",
			"primitives":[
				{
					"attributes":{
						"POSITION":14,
						"NORMAL":15,
						"TEXCOORD_0":16
					},
					"indices":3,
					"material":4
				}
			]
		},
		{
			"name":"Mesh_8.001",
			"primitives":[
				{
					"attributes":{
						"POSITION":17,
						"NORMAL":18,
						"TEXCOORD_0":19
					},
					"indices":20,
					"material":5
				}
			]
		},
		{
			"name":"Mesh_9.001",
			"primitives":[
				{
					"attributes":{
						"POSITION":21,
						"NORMAL":22,
						"TEXCOORD_0":23
					},
					"indices":24,
					"material":6
				}
			]
		},
		{
			"name":"Mesh_10.001",
			"primitives":[
				{
					"attributes":{
						"POSITION":25,
						"NORMAL":26,
						"TEXCOORD_0":27
					},
					"indices":28,
					"material":7
				}
			]
		},
		{
			"name":"Mesh_5.001",
			"primitives":[
				{
					"attributes":{
						"POSITION":29,
						"NORMAL":30,
						"TEXCOORD_0":31
					},
					"indices":28,
					"material":8
				}
			]
		},
		{
			"name":"Mesh_6.002",
			"primitives":[
				{
					"attributes":{
						"POSITION":32,
						"NORMAL":33,
						"TEXCOORD_0":34
					},
					"indices":24,
					"material":9
				}
			]
		},
		{
			"name":"Mesh_7.001",
			"primitives":[
				{
					"attributes":{
						"POSITION":35,
						"NORMAL":36,
						"TEXCOORD_0":37
					},
					"indices":20,
					"material":10
				}
			]
		}
	],
	"textures":[
		{
			"sampler":0,
			"source":0
		},
		{
			"sampler":0,
			"source":1
		},
		{
			"sampler":0,
			"source":2
		},
		{
			"sampler":0,
			"source":3
		},
		{
			"sampler":0,
			"source":4
		},
		{
			"sampler":0,
			"source":0
		},
		{
			"sampler":0,
			"source":1
		},
		{
			"sampler":0,
			"source":5
		},
		{
			"sampler":0,
			"source":6
		},
		{
			"sampler":0,
			"source":7
		},
		{
			"sampler":0,
			"source":8
		},
		{
			"sampler":0,
			"source":9
		},
		{
			"sampler":0,
			"source":10
		},
		{
			"sampler":0,
			"source":11
		},
		{
			"sampler":0,
			"source":9
		},
		{
			"sampler":0,
			"source":10
		},
		{
			"sampler":0,
			"source":11
		},
		{
			"sampler":0,
			"source":9
		},
		{
			"sampler":0,
			"source":10
		},
		{
			"sampler":0,
			"source":11
		},
		{
			"sampler":0,
			"source":9
		},
		{
			"sampler":0,
			"source":10
		},
		{
			"sampler":0,
			"source":11
		},
		{
			"sampler":0,
			"source":9
		},
		{
			"sampler":0,
			"source":10
		},
		{
			"sampler":0,
			"source":11
		},
		{
			"sampler":0,
			"source":9
		},
		{
			"sampler":0,
			"source":10
		},
		{
			"sampler":0,
			"source":11
		}
	],
	"images":[
		{
			"mimeType":"image/jpeg",
			"name":"inner-screen-inverted__480x240",
			"uri":"inner-screen-inverted__480x240.jpg"
		},
		{
			"mimeType":"image/png",
			"name":"inner-screen-inverted__480x240_1",
			"uri":"inner-screen-inverted__480x240_1.png"
		},
		{
			"mimeType":"image/jpeg",
			"name":"lambert16SG_Normal_OpenGL",
			"uri":"lambert16SG_Normal_OpenGL.jpg"
		},
		{
			"mimeType":"image/png",
			"name":"Base-color-v2&lambert16SG_Opacity",
			"uri":"Base-color-v2lambert16SG_Opacity.png"
		},
		{
			"mimeType":"image/jpeg",
			"name":"metalness-v2&Roughness-v2",
			"uri":"metalness-v2Roughness-v2.jpg"
		},
		{
			"mimeType":"image/jpeg",
			"name":"front-screen__400x120",
			"uri":"front-screen__400x120.jpg"
		},
		{
			"mimeType":"image/png",
			"name":"front-screen__400x120_1",
			"uri":"front-screen__400x120_1.png"
		},
		{
			"mimeType":"image/jpeg",
			"name":"inner-screen__480x240",
			"uri":"inner-screen__480x240.jpg"
		},
		{
			"mimeType":"image/png",
			"name":"inner-screen__480x240_1",
			"uri":"inner-screen__480x240_1.png"
		},
		{
			"mimeType":"image/jpeg",
			"name":"Velik_04_LP_DefaultMaterial_Normal",
			"uri":"Velik_04_LP_DefaultMaterial_Normal.jpg"
		},
		{
			"mimeType":"image/png",
			"name":"Velik_04_LP_DefaultMaterial_BaseColorVelik_alpha&Velik_04_LP_DefaultMaterial_BaseColorVelik_alpha",
			"uri":"Velik_04_LP_DefaultMaterial_BaseColorVelik_alphaVelik_04_LP_DefaultMaterial_BaseColorVelik_alpha.png"
		},
		{
			"mimeType":"image/png",
			"name":"Velik_04_LP_DefaultMaterial_MetallicVelik_04_LP_DefaultMaterial_Roughness",
			"uri":"Velik_04_LP_DefaultMaterial_MetallicVelik_04_LP_DefaultMaterial_Roughness.png"
		}
	],
	"accessors":[
		{
			"bufferView":0,
			"componentType":5126,
			"count":4,
			"max":[
				0.41780099272727966,
				0.29313603043556213,
				0
			],
			"min":[
				-0.41780099272727966,
				-0.29313603043556213,
				0
			],
			"type":"VEC3"
		},
		{
			"bufferView":1,
			"componentType":5126,
			"count":4,
			"type":"VEC3"
		},
		{
			"bufferView":2,
			"componentType":5126,
			"count":4,
			"type":"VEC2"
		},
		{
			"bufferView":3,
			"componentType":5123,
			"count":6,
			"type":"SCALAR"
		},
		{
			"bufferView":4,
			"componentType":5126,
			"count":35865,
			"max":[
				1.9222160577774048,
				0.9065690040588379,
				5.594725608825684
			],
			"min":[
				-1.8864339590072632,
				-3.813847064971924,
				-6.089221000671387
			],
			"type":"VEC3"
		},
		{
			"bufferView":5,
			"componentType":5126,
			"count":35865,
			"type":"VEC3"
		},
		{
			"bufferView":6,
			"componentType":5126,
			"count":35865,
			"type":"VEC2"
		},
		{
			"bufferView":7,
			"componentType":5123,
			"count":79305,
			"type":"SCALAR"
		},
		{
			"bufferView":8,
			"componentType":5126,
			"count":4,
			"max":[
				0.40188199281692505,
				0.31677550077438354,
				0
			],
			"min":[
				-0.40188199281692505,
				-0.31677550077438354,
				0
			],
			"type":"VEC3"
		},
		{
			"bufferView":9,
			"componentType":5126,
			"count":4,
			"type":"VEC3"
		},
		{
			"bufferView":10,
			"componentType":5126,
			"count":4,
			"type":"VEC2"
		},
		{
			"bufferView":11,
			"componentType":5126,
			"count":4,
			"max":[
				0.35931098461151123,
				0.14798298478126526,
				0
			],
			"min":[
				-0.35931098461151123,
				-0.14798298478126526,
				0
			],
			"type":"VEC3"
		},
		{
			"bufferView":12,
			"componentType":5126,
			"count":4,
			"type":"VEC3"
		},
		{
			"bufferView":13,
			"componentType":5126,
			"count":4,
			"type":"VEC2"
		},
		{
			"bufferView":14,
			"componentType":5126,
			"count":4,
			"max":[
				0.42620348930358887,
				0.4175485074520111,
				0
			],
			"min":[
				-0.42620348930358887,
				-0.4175485074520111,
				0
			],
			"type":"VEC3"
		},
		{
			"bufferView":15,
			"componentType":5126,
			"count":4,
			"type":"VEC3"
		},
		{
			"bufferView":16,
			"componentType":5126,
			"count":4,
			"type":"VEC2"
		},
		{
			"bufferView":17,
			"componentType":5126,
			"count":277,
			"max":[
				0.20520900189876556,
				-1.0733109712600708,
				4.212563991546631
			],
			"min":[
				-0.18638600409030914,
				-1.921970009803772,
				3.665925979614258
			],
			"type":"VEC3"
		},
		{
			"bufferView":18,
			"componentType":5126,
			"count":277,
			"type":"VEC3"
		},
		{
			"bufferView":19,
			"componentType":5126,
			"count":277,
			"type":"VEC2"
		},
		{
			"bufferView":20,
			"componentType":5123,
			"count":888,
			"type":"SCALAR"
		},
		{
			"bufferView":21,
			"componentType":5126,
			"count":20,
			"max":[
				0.0211350005120039,
				-3.830169916152954,
				3.104114532470703
			],
			"min":[
				-0.055326998233795166,
				-4.700596332550049,
				1.8569035530090332
			],
			"type":"VEC3"
		},
		{
			"bufferView":22,
			"componentType":5126,
			"count":20,
			"type":"VEC3"
		},
		{
			"bufferView":23,
			"componentType":5126,
			"count":20,
			"type":"VEC2"
		},
		{
			"bufferView":24,
			"componentType":5123,
			"count":30,
			"type":"SCALAR"
		},
		{
			"bufferView":25,
			"componentType":5126,
			"count":20,
			"max":[
				0.035188961774110794,
				0.48197388648986816,
				0.6381535530090332
			],
			"min":[
				-0.04127303510904312,
				-0.38845252990722656,
				-0.6090574264526367
			],
			"type":"VEC3"
		},
		{
			"bufferView":26,
			"componentType":5126,
			"count":20,
			"type":"VEC3"
		},
		{
			"bufferView":27,
			"componentType":5126,
			"count":20,
			"type":"VEC2"
		},
		{
			"bufferView":28,
			"componentType":5123,
			"count":30,
			"type":"SCALAR"
		},
		{
			"bufferView":29,
			"componentType":5126,
			"count":20,
			"max":[
				0.035188961774110794,
				0.48197388648986816,
				0.6381535530090332
			],
			"min":[
				-0.04127303510904312,
				-0.38845252990722656,
				-0.6090574264526367
			],
			"type":"VEC3"
		},
		{
			"bufferView":30,
			"componentType":5126,
			"count":20,
			"type":"VEC3"
		},
		{
			"bufferView":31,
			"componentType":5126,
			"count":20,
			"type":"VEC2"
		},
		{
			"bufferView":32,
			"componentType":5126,
			"count":20,
			"max":[
				0.0211350005120039,
				-3.830169916152954,
				3.104114532470703
			],
			"min":[
				-0.055326998233795166,
				-4.700596332550049,
				1.8569035530090332
			],
			"type":"VEC3"
		},
		{
			"bufferView":33,
			"componentType":5126,
			"count":20,
			"type":"VEC3"
		},
		{
			"bufferView":34,
			"componentType":5126,
			"count":20,
			"type":"VEC2"
		},
		{
			"bufferView":35,
			"componentType":5126,
			"count":277,
			"max":[
				0.20520900189876556,
				-1.0733109712600708,
				4.212563991546631
			],
			"min":[
				-0.18638600409030914,
				-1.921970009803772,
				3.665925979614258
			],
			"type":"VEC3"
		},
		{
			"bufferView":36,
			"componentType":5126,
			"count":277,
			"type":"VEC3"
		},
		{
			"bufferView":37,
			"componentType":5126,
			"count":277,
			"type":"VEC2"
		}
	],
	"bufferViews":[
		{
			"buffer":0,
			"byteLength":48,
			"byteOffset":0,
			"target":34962
		},
		{
			"buffer":0,
			"byteLength":48,
			"byteOffset":48,
			"target":34962
		},
		{
			"buffer":0,
			"byteLength":32,
			"byteOffset":96,
			"target":34962
		},
		{
			"buffer":0,
			"byteLength":12,
			"byteOffset":128,
			"target":34963
		},
		{
			"buffer":0,
			"byteLength":430380,
			"byteOffset":140,
			"target":34962
		},
		{
			"buffer":0,
			"byteLength":430380,
			"byteOffset":430520,
			"target":34962
		},
		{
			"buffer":0,
			"byteLength":286920,
			"byteOffset":860900,
			"target":34962
		},
		{
			"buffer":0,
			"byteLength":158610,
			"byteOffset":1147820,
			"target":34963
		},
		{
			"buffer":0,
			"byteLength":48,
			"byteOffset":1306432,
			"target":34962
		},
		{
			"buffer":0,
			"byteLength":48,
			"byteOffset":1306480,
			"target":34962
		},
		{
			"buffer":0,
			"byteLength":32,
			"byteOffset":1306528,
			"target":34962
		},
		{
			"buffer":0,
			"byteLength":48,
			"byteOffset":1306560,
			"target":34962
		},
		{
			"buffer":0,
			"byteLength":48,
			"byteOffset":1306608,
			"target":34962
		},
		{
			"buffer":0,
			"byteLength":32,
			"byteOffset":1306656,
			"target":34962
		},
		{
			"buffer":0,
			"byteLength":48,
			"byteOffset":1306688,
			"target":34962
		},
		{
			"buffer":0,
			"byteLength":48,
			"byteOffset":1306736,
			"target":34962
		},
		{
			"buffer":0,
			"byteLength":32,
			"byteOffset":1306784,
			"target":34962
		},
		{
			"buffer":0,
			"byteLength":3324,
			"byteOffset":1306816,
			"target":34962
		},
		{
			"buffer":0,
			"byteLength":3324,
			"byteOffset":1310140,
			"target":34962
		},
		{
			"buffer":0,
			"byteLength":2216,
			"byteOffset":1313464,
			"target":34962
		},
		{
			"buffer":0,
			"byteLength":1776,
			"byteOffset":1315680,
			"target":34963
		},
		{
			"buffer":0,
			"byteLength":240,
			"byteOffset":1317456,
			"target":34962
		},
		{
			"buffer":0,
			"byteLength":240,
			"byteOffset":1317696,
			"target":34962
		},
		{
			"buffer":0,
			"byteLength":160,
			"byteOffset":1317936,
			"target":34962
		},
		{
			"buffer":0,
			"byteLength":60,
			"byteOffset":1318096,
			"target":34963
		},
		{
			"buffer":0,
			"byteLength":240,
			"byteOffset":1318156,
			"target":34962
		},
		{
			"buffer":0,
			"byteLength":240,
			"byteOffset":1318396,
			"target":34962
		},
		{
			"buffer":0,
			"byteLength":160,
			"byteOffset":1318636,
			"target":34962
		},
		{
			"buffer":0,
			"byteLength":60,
			"byteOffset":1318796,
			"target":34963
		},
		{
			"buffer":0,
			"byteLength":240,
			"byteOffset":1318856,
			"target":34962
		},
		{
			"buffer":0,
			"byteLength":240,
			"byteOffset":1319096,
			"target":34962
		},
		{
			"buffer":0,
			"byteLength":160,
			"byteOffset":1319336,
			"target":34962
		},
		{
			"buffer":0,
			"byteLength":240,
			"byteOffset":1319496,
			"target":34962
		},
		{
			"buffer":0,
			"byteLength":240,
			"byteOffset":1319736,
			"target":34962
		},
		{
			"buffer":0,
			"byteLength":160,
			"byteOffset":1319976,
			"target":34962
		},
		{
			"buffer":0,
			"byteLength":3324,
			"byteOffset":1320136,
			"target":34962
		},
		{
			"buffer":0,
			"byteLength":3324,
			"byteOffset":1323460,
			"target":34962
		},
		{
			"buffer":0,
			"byteLength":2216,
			"byteOffset":1326784,
			"target":34962
		}
	],
	"samplers":[
		{
			"magFilter":9729,
			"minFilter":9987
		}
	],
	"buffers":[
		{
			"byteLength":1329000,
			"uri":"untitled.bin"
		}
	]
}
