<svg width="21" height="21" viewBox="0 0 21 21" fill="none" xmlns="http://www.w3.org/2000/svg">
<path d="M6.5 7.83334L7.03333 8.23334C7.10762 8.13429 7.15285 8.01652 7.16397 7.89321C7.17509 7.7699 7.15165 7.64593 7.09628 7.5352C7.04092 7.42446 6.9558 7.33133 6.85049 7.26624C6.74517 7.20115 6.62381 7.16667 6.5 7.16667V7.83334ZM4.5 10.5L3.96667 10.1C3.89238 10.1991 3.84715 10.3168 3.83603 10.4401C3.82491 10.5634 3.84835 10.6874 3.90372 10.7981C3.95908 10.9089 4.0442 11.002 4.14951 11.0671C4.25483 11.1322 4.37619 11.1667 4.5 11.1667V10.5ZM3.16667 8.50001H6.5V7.16667H3.16667V8.50001ZM5.96667 7.43334L3.96667 10.1L5.03333 10.9L7.03333 8.23334L5.96667 7.43334ZM4.5 11.1667H5.16667V9.83334H4.5V11.1667ZM5.16667 12.5H3.16667V13.8333H5.16667V12.5ZM5.83333 11.8333C5.83333 12.0101 5.7631 12.1797 5.63807 12.3047C5.51305 12.4298 5.34348 12.5 5.16667 12.5V13.8333C5.6971 13.8333 6.20581 13.6226 6.58088 13.2476C6.95595 12.8725 7.16667 12.3638 7.16667 11.8333H5.83333ZM5.16667 11.1667C5.34348 11.1667 5.51305 11.2369 5.63807 11.3619C5.7631 11.487 5.83333 11.6565 5.83333 11.8333H7.16667C7.16667 11.3029 6.95595 10.7942 6.58088 10.4191C6.20581 10.0441 5.6971 9.83334 5.16667 9.83334V11.1667ZM11.1667 7.16667H10.5V8.50001H11.1667V7.16667ZM8.5 9.16667V10.5H9.83333V9.16667H8.5ZM8.5 10.5V11.8333H9.83333V10.5H8.5ZM10.5 9.83334H9.16667V11.1667H10.5V9.83334ZM12.5 11.8333C12.5 11.3029 12.2893 10.7942 11.9142 10.4191C11.5391 10.0441 11.0304 9.83334 10.5 9.83334V11.1667C10.6768 11.1667 10.8464 11.2369 10.9714 11.3619C11.0964 11.487 11.1667 11.6565 11.1667 11.8333H12.5ZM10.5 13.8333C11.0304 13.8333 11.5391 13.6226 11.9142 13.2476C12.2893 12.8725 12.5 12.3638 12.5 11.8333H11.1667C11.1667 12.0101 11.0964 12.1797 10.9714 12.3047C10.8464 12.4298 10.6768 12.5 10.5 12.5V13.8333ZM10.5 12.5C10.3232 12.5 10.1536 12.4298 10.0286 12.3047C9.90357 12.1797 9.83333 12.0101 9.83333 11.8333H8.5C8.5 12.3638 8.71071 12.8725 9.08579 13.2476C9.46086 13.6226 9.96957 13.8333 10.5 13.8333V12.5ZM10.5 7.16667C9.96957 7.16667 9.46086 7.37739 9.08579 7.75246C8.71071 8.12753 8.5 8.63624 8.5 9.16667H9.83333C9.83333 8.98986 9.90357 8.82029 10.0286 8.69527C10.1536 8.57024 10.3232 8.50001 10.5 8.50001V7.16667ZM16.5 9.16667V11.8333H17.8333V9.16667H16.5ZM15.1667 11.8333V9.16667H13.8333V11.8333H15.1667ZM15.8333 12.5C15.6565 12.5 15.487 12.4298 15.3619 12.3047C15.2369 12.1797 15.1667 12.0101 15.1667 11.8333H13.8333C13.8333 12.3638 14.044 12.8725 14.4191 13.2476C14.7942 13.6226 15.3029 13.8333 15.8333 13.8333V12.5ZM16.5 11.8333C16.5 12.0101 16.4298 12.1797 16.3047 12.3047C16.1797 12.4298 16.0101 12.5 15.8333 12.5V13.8333C16.3638 13.8333 16.8725 13.6226 17.2475 13.2476C17.6226 12.8725 17.8333 12.3638 17.8333 11.8333H16.5ZM15.8333 8.50001C16.0101 8.50001 16.1797 8.57024 16.3047 8.69527C16.4298 8.82029 16.5 8.98986 16.5 9.16667H17.8333C17.8333 8.63624 17.6226 8.12753 17.2475 7.75246C16.8725 7.37739 16.3638 7.16667 15.8333 7.16667V8.50001ZM15.8333 7.16667C15.3029 7.16667 14.7942 7.37739 14.4191 7.75246C14.044 8.12753 13.8333 8.63624 13.8333 9.16667H15.1667C15.1667 8.98986 15.2369 8.82029 15.3619 8.69527C15.487 8.57024 15.6565 8.50001 15.8333 8.50001V7.16667ZM10.5 19.1667C8.20146 19.1667 5.99706 18.2536 4.37174 16.6283C2.74643 15.0029 1.83333 12.7985 1.83333 10.5H0.5C0.5 13.1522 1.55357 15.6957 3.42893 17.5711C5.3043 19.4464 7.84784 20.5 10.5 20.5V19.1667ZM19.1667 10.5C19.1667 11.6381 18.9425 12.7651 18.507 13.8166C18.0714 14.8681 17.433 15.8235 16.6283 16.6283C15.8235 17.433 14.8681 18.0714 13.8166 18.507C12.7651 18.9425 11.6381 19.1667 10.5 19.1667V20.5C13.1522 20.5 15.6957 19.4464 17.5711 17.5711C19.4464 15.6957 20.5 13.1522 20.5 10.5H19.1667ZM10.5 0.500006C7.84784 0.500006 5.3043 1.55357 3.42893 3.42894C1.55357 5.3043 0.5 7.84784 0.5 10.5H1.83333C1.83333 8.20146 2.74643 5.99706 4.37174 4.37175C5.99706 2.74643 8.20146 1.83334 10.5 1.83334V0.500006ZM18.5 4.50001C18.6768 4.50001 18.8464 4.57024 18.9714 4.69527C19.0964 4.82029 19.1667 4.98986 19.1667 5.16667H20.5C20.5 4.63624 20.2893 4.12753 19.9142 3.75246C19.5391 3.37739 19.0304 3.16667 18.5 3.16667V4.50001ZM18.5 5.83334C18.3232 5.83334 18.1536 5.7631 18.0286 5.63808C17.9036 5.51305 17.8333 5.34348 17.8333 5.16667H16.5C16.5 5.69711 16.7107 6.20581 17.0858 6.58089C17.4609 6.95596 17.9696 7.16667 18.5 7.16667V5.83334ZM17.8333 5.16667C17.8333 5.00267 17.892 4.85334 17.9907 4.73601L16.9733 3.87467C16.6787 4.22267 16.5 4.67467 16.5 5.16667H17.8333ZM17.9907 4.73601C18.0532 4.66186 18.1312 4.60231 18.2192 4.56153C18.3072 4.52076 18.403 4.49976 18.5 4.50001V3.16667C17.8867 3.16667 17.3387 3.44267 16.9733 3.87467L17.9907 4.73601ZM10.5 1.83334C13.0787 1.83334 15.3947 2.95867 16.9827 4.74801L17.98 3.86267C17.0426 2.80418 15.891 1.957 14.6015 1.37727C13.3119 0.797546 11.9139 0.498518 10.5 0.500006V1.83334ZM18.3053 6.72667C18.8573 7.86801 19.1667 9.14667 19.1667 10.5H20.5C20.5 8.94001 20.1427 7.46401 19.5053 6.14667L18.3053 6.72667ZM19.1667 5.16667C19.1669 5.30821 19.122 5.44613 19.0386 5.56048C18.9552 5.67482 18.8375 5.75964 18.7027 5.80267L19.108 7.07201C19.5121 6.94306 19.8647 6.68899 20.1149 6.3465C20.3651 6.004 20.5 5.59083 20.5 5.16667H19.1667ZM18.7027 5.80267C18.6371 5.82328 18.5687 5.83363 18.5 5.83334V7.16667C18.7063 7.1671 18.9114 7.13428 19.108 7.07201L18.7027 5.80267Z" fill="white"/>
</svg>
