<svg width="28" height="29" viewBox="0 0 28 29" fill="none" xmlns="http://www.w3.org/2000/svg">
<g clip-path="url(#clip0_2093_42831)">
<path d="M19.6212 0.500223H8.33997C7.45423 0.500223 6.60476 0.847866 5.97844 1.46667C5.35212 2.08548 5.00026 2.92477 5.00026 3.79989V7.771C4.99767 7.86582 5.01433 7.96019 5.04927 8.04853C5.08422 8.13688 5.13672 8.21741 5.20369 8.28536C5.27067 8.35332 5.35075 8.40733 5.4392 8.44419C5.52765 8.48106 5.62269 8.50003 5.71869 8.5C5.91099 8.495 6.09371 8.41599 6.22791 8.27982C6.36212 8.14364 6.43718 7.96107 6.43711 7.771V3.79989C6.43711 3.2911 6.64168 2.80314 7.00582 2.44337C7.36996 2.0836 7.86384 1.88148 8.37881 1.88148H9.6409C9.66406 2.14491 9.78304 2.39112 9.97582 2.57453C10.1686 2.75794 10.4221 2.86613 10.6894 2.87905H17.2717C17.5489 2.87492 17.8145 2.76816 18.0158 2.57988C18.2172 2.3916 18.3397 2.13553 18.3591 1.8623H19.6212C20.1362 1.8623 20.63 2.06441 20.9942 2.42419C21.3583 2.78396 21.5629 3.27191 21.5629 3.78071V7.771C21.5628 7.96107 21.6379 8.14364 21.7721 8.27982C21.9063 8.41599 22.089 8.495 22.2813 8.5C22.3773 8.50003 22.4723 8.48106 22.5608 8.44419C22.6493 8.40733 22.7293 8.35332 22.7963 8.28536C22.8633 8.21741 22.9158 8.13688 22.9507 8.04853C22.9857 7.96019 23.0023 7.86582 22.9997 7.771V3.79989C22.9998 3.36333 22.9121 2.93109 22.7419 2.52824C22.5716 2.12538 22.3221 1.75991 22.0079 1.453C21.6936 1.14609 21.3209 0.903846 20.9112 0.740297C20.5015 0.576747 20.063 0.495147 19.6212 0.500223Z" fill="white"/>
<path d="M22.2813 21.5C22.089 21.505 21.9063 21.5835 21.7721 21.7189C21.6379 21.8543 21.5628 22.0358 21.5629 22.2248V25.2193C21.5629 25.7252 21.3583 26.2104 20.9942 26.568C20.63 26.9257 20.1362 27.1267 19.6212 27.1267H8.37881C7.86384 27.1267 7.36996 26.9257 7.00582 26.568C6.64168 26.2104 6.43711 25.7252 6.43711 25.2193V22.2248C6.43718 22.0358 6.36212 21.8543 6.22791 21.7189C6.09371 21.5835 5.91099 21.505 5.71869 21.5C5.62269 21.5 5.52765 21.5188 5.4392 21.5555C5.35075 21.5921 5.27067 21.6458 5.20369 21.7134C5.13672 21.781 5.08422 21.861 5.04927 21.9489C5.01433 22.0367 4.99767 22.1305 5.00026 22.2248V25.2193C5.00026 26.0894 5.35212 26.9239 5.97844 27.5391C6.60476 28.1544 7.45423 28.5 8.33997 28.5H19.66C20.0986 28.5 20.5329 28.4151 20.9381 28.2503C21.3433 28.0854 21.7114 27.8438 22.0216 27.5391C22.3317 27.2345 22.5777 26.8728 22.7455 26.4748C22.9134 26.0768 22.9997 25.6502 22.9997 25.2193V22.2248C23.0023 22.1305 22.9857 22.0367 22.9507 21.9489C22.9158 21.861 22.8633 21.781 22.7963 21.7134C22.7293 21.6458 22.6493 21.5921 22.5608 21.5555C22.4723 21.5188 22.3773 21.5 22.2813 21.5Z" fill="white"/>
<path d="M11 25C11 25.1326 11.0837 25.2598 11.2326 25.3536C11.3815 25.4473 11.5835 25.5 11.7941 25.5H16.2059C16.4165 25.5 16.6185 25.4473 16.7674 25.3536C16.9163 25.2598 17 25.1326 17 25C17 24.8674 16.9163 24.7402 16.7674 24.6464C16.6185 24.5527 16.4165 24.5 16.2059 24.5H11.7941C11.5835 24.5 11.3815 24.5527 11.2326 24.6464C11.0837 24.7402 11 24.8674 11 25Z" fill="white"/>
<path d="M10.1185 9.93762C10.0599 9.80833 9.96677 9.69864 9.84989 9.62121C9.733 9.54378 9.59711 9.50176 9.4579 9.5C9.31869 9.50176 9.1828 9.54378 9.06591 9.62121C8.94903 9.69864 8.85591 9.80833 8.7973 9.93762L5.06683 18.4911C4.9866 18.6708 4.97828 18.8755 5.04364 19.0614C5.10901 19.2473 5.24287 19.3996 5.41656 19.4857C5.51935 19.5048 5.62464 19.5048 5.72743 19.4857C5.86718 19.4864 6.00408 19.4454 6.12141 19.3677C6.23873 19.29 6.33139 19.1789 6.38804 19.0481L7.49552 16.502H11.498L12.6055 19.0083C12.6899 19.1862 12.8374 19.3244 13.018 19.3947C13.1985 19.4649 13.3985 19.4619 13.577 19.3863C13.6647 19.3457 13.7436 19.2875 13.809 19.2151C13.8744 19.1427 13.9249 19.0576 13.9575 18.9648C13.9901 18.872 14.0042 18.7735 13.9989 18.675C13.9936 18.5766 13.9691 18.4802 13.9267 18.3917L10.1185 9.93762ZM8.17555 15.0697L9.49676 12.0462L10.8568 15.0697H8.17555Z" fill="white"/>
<path d="M22.8967 13.0002C22.8915 12.0702 22.5086 11.18 21.8318 10.5242C21.1549 9.86841 20.2391 9.50029 19.2845 9.5003H15.7316C15.6162 9.49698 15.5016 9.52111 15.3979 9.57061C15.2942 9.62012 15.2045 9.6935 15.1364 9.78441C15.0684 9.87531 15.0241 9.98101 15.0074 10.0923C14.9908 10.2037 15.0022 10.3173 15.0407 10.4233C15.0407 10.4233 15.0407 10.4233 15.0407 10.5387V18.7499C15.0407 18.9386 15.1177 19.1196 15.2547 19.253C15.3916 19.3864 15.5774 19.4614 15.7711 19.4614C15.9648 19.4614 16.1505 19.3864 16.2875 19.253C16.4245 19.1196 16.5014 18.9386 16.5014 18.7499V16.5192H19.3043H19.6793L21.6532 19.1922C21.7225 19.2874 21.8143 19.365 21.9207 19.4185C22.0272 19.472 22.1453 19.4999 22.2651 19.4999C22.415 19.5028 22.5614 19.4553 22.6796 19.3653C22.8396 19.2564 22.9496 19.091 22.9865 18.9043C23.0234 18.7176 22.9841 18.5242 22.877 18.3653L21.2189 16.0577C21.7444 15.7311 22.1747 15.2783 22.4686 14.7428C22.7624 14.2074 22.9098 13.6072 22.8967 13.0002ZM19.2845 15.077H16.4817V10.9233H19.2845C19.8499 10.9233 20.3922 11.1421 20.7919 11.5316C21.1917 11.9211 21.4163 12.4493 21.4163 13.0002C21.4163 13.551 21.1917 14.0792 20.7919 14.4687C20.3922 14.8582 19.8499 15.077 19.2845 15.077Z" fill="white"/>
</g>
<defs>
<clipPath id="clip0_2093_42831">
<rect width="28" height="28" fill="white" transform="translate(0 0.5)"/>
</clipPath>
</defs>
</svg>
