<svg width="23" height="18" viewBox="0 0 23 18" fill="none" xmlns="http://www.w3.org/2000/svg">
<path fill-rule="evenodd" clip-rule="evenodd" d="M10.0212 0H13.0426L14.1267 1.04318H14.9525C15.8907 0.944771 17.9161 0.719756 18.9466 0.562363C19.8204 0.428889 20.5668 0.613916 21.1186 1.08062C21.6419 1.52326 21.8853 2.13105 21.98 2.66455C22.0567 3.09703 22.3402 4.85326 22.5782 6.70585C22.6972 7.63246 22.806 8.59147 22.8715 9.42535C22.9352 10.2356 22.9647 10.9993 22.8994 11.4959C22.844 11.9169 22.669 12.4113 22.462 12.8939C22.2487 13.3915 21.9746 13.937 21.6814 14.4783C21.3305 15.1261 20.9445 15.7821 20.5867 16.3636H22.1497C22.6193 16.3636 23 16.7299 23 17.1818C23 17.6337 22.6193 18 22.1497 18H0.850277C0.380682 18 0 17.6337 0 17.1818C0 16.7299 0.380682 16.3636 0.850277 16.3636H2.47708C2.11932 15.7821 1.73328 15.1261 1.38235 14.4783C1.08917 13.937 0.815089 13.3915 0.601721 12.8939C0.394808 12.4113 0.219754 11.9169 0.164373 11.4959C0.099048 10.9993 0.128603 10.2356 0.19228 9.42535C0.257817 8.59147 0.366543 7.63246 0.485575 6.70585C0.72356 4.85326 1.00708 3.09703 1.08382 2.66455C1.17848 2.13105 1.42188 1.52326 1.94518 1.08062C2.49695 0.613916 3.24334 0.428889 4.11719 0.562363C5.14763 0.719756 7.17309 0.944771 8.11129 1.04318H8.93708L10.0212 0ZM11.5301 16.3636H11.5337V16.3432H18.6109C19.0677 15.6363 19.6624 14.6654 20.1734 13.7219C20.4533 13.2051 20.7028 12.7064 20.89 12.2698C21.0324 11.9377 21.1256 11.6714 21.1752 11.4751L21.167 11.478C20.3233 11.7696 19.0837 12.0477 17.4307 12.0477H5.63309C3.92657 12.0477 2.72144 11.8041 1.9016 11.5247C1.95379 11.7154 2.04302 11.9649 2.17374 12.2698C2.36097 12.7064 2.61042 13.2051 2.89036 13.7219C3.40142 14.6654 3.99607 15.6363 4.45289 16.3432H11.5301V16.3636ZM15.0446 2.67955L15.0903 2.67477C16.0019 2.57957 18.118 2.34577 19.2132 2.17849C19.6785 2.10742 19.8887 2.21898 19.9959 2.30966C20.1315 2.42442 20.2495 2.6348 20.3037 2.93994C20.3352 3.1177 20.4065 3.54929 20.4965 4.13182H2.5673C2.65725 3.54929 2.72858 3.1177 2.76012 2.93994C2.81426 2.6348 2.93224 2.42442 3.06791 2.30966C3.17512 2.21898 3.38529 2.10742 3.85059 2.17849C4.94574 2.34577 7.06192 2.57957 7.97343 2.67477L8.01917 2.67955H15.0446ZM20.7374 5.76818C20.7888 6.13546 20.8407 6.51883 20.8905 6.9066C21.0079 7.8209 21.1131 8.75137 21.1758 9.54875C21.1797 9.5986 21.1834 9.64767 21.187 9.69594C21.0406 9.76625 20.8428 9.85134 20.5922 9.93793C19.9267 10.1679 18.8812 10.4114 17.4307 10.4114H5.63309C4.00132 10.4114 2.96285 10.1644 2.35906 9.94328C2.14826 9.86608 1.98888 9.79147 1.8743 9.73044C1.87857 9.6711 1.88314 9.61052 1.88799 9.54875C1.95066 8.75137 2.05583 7.8209 2.17328 6.9066C2.2231 6.51883 2.27492 6.13546 2.32636 5.76818H20.7374Z" fill="#0D171F"/>
</svg>
