<svg width="21" height="20" viewBox="0 0 21 20" fill="none" xmlns="http://www.w3.org/2000/svg">
<path d="M10.5 3.75V1.875" stroke="white" stroke-width="1.25" stroke-linecap="round" stroke-linejoin="round"/>
<path d="M18 12.4999C16.8617 16.484 11.577 17.8765 10.6417 18.0936C10.5485 18.1153 10.4515 18.1153 10.3583 18.0936C9.42299 17.8765 4.13831 16.484 3 12.4999V9.82536C3 9.69418 3.04127 9.56633 3.11797 9.45991C3.19467 9.3535 3.30291 9.27391 3.42736 9.23243L10.3024 6.94076C10.4306 6.898 10.5694 6.898 10.6976 6.94076L17.5726 9.23243C17.6971 9.27391 17.8053 9.3535 17.882 9.45991C17.9587 9.56633 18 9.69418 18 9.82536V12.4999Z" stroke="white" stroke-width="1.25" stroke-linecap="round" stroke-linejoin="round"/>
<path d="M10.5 13.1249V6.90869" stroke="white" stroke-width="1.25" stroke-linecap="round" stroke-linejoin="round"/>
<path d="M4.875 8.75V4.375C4.875 4.20924 4.94085 4.05027 5.05806 3.93306C5.17527 3.81585 5.33424 3.75 5.5 3.75H15.5C15.6658 3.75 15.8247 3.81585 15.9419 3.93306C16.0592 4.05027 16.125 4.20924 16.125 4.375V8.75" stroke="white" stroke-width="1.25" stroke-linecap="round" stroke-linejoin="round"/>
</svg>
