<svg width="40" height="40" viewBox="0 0 40 40" fill="none" xmlns="http://www.w3.org/2000/svg">
<circle cx="20" cy="20" r="20" fill="white"/>
<path fill-rule="evenodd" clip-rule="evenodd" d="M18.0212 11H21.0426L22.1267 12.0432H22.9525C23.8907 11.9448 25.9161 11.7198 26.9466 11.5624C27.8204 11.4289 28.5668 11.6139 29.1186 12.0806C29.6419 12.5233 29.8853 13.1311 29.98 13.6645C30.0567 14.097 30.3402 15.8533 30.5782 17.7059C30.6972 18.6325 30.806 19.5915 30.8715 20.4253C30.9352 21.2356 30.9647 21.9993 30.8994 22.4959C30.844 22.9169 30.669 23.4113 30.462 23.8939C30.2487 24.3915 29.9746 24.937 29.6814 25.4783C29.3305 26.1261 28.9445 26.7821 28.5867 27.3636H30.1497C30.6193 27.3636 31 27.7299 31 28.1818C31 28.6337 30.6193 29 30.1497 29H8.85028C8.38068 29 8 28.6337 8 28.1818C8 27.7299 8.38068 27.3636 8.85028 27.3636H10.4771C10.1193 26.7821 9.73328 26.1261 9.38235 25.4783C9.08917 24.937 8.81509 24.3915 8.60172 23.8939C8.39481 23.4113 8.21975 22.9169 8.16437 22.4959C8.09905 21.9993 8.1286 21.2356 8.19228 20.4253C8.25782 19.5915 8.36654 18.6325 8.48558 17.7059C8.72356 15.8533 9.00708 14.097 9.08382 13.6645C9.17848 13.1311 9.42188 12.5233 9.94518 12.0806C10.497 11.6139 11.2433 11.4289 12.1172 11.5624C13.1476 11.7198 15.1731 11.9448 16.1113 12.0432H16.9371L18.0212 11ZM19.5301 27.3636H19.5337V27.3432H26.6109C27.0677 26.6363 27.6624 25.6654 28.1734 24.7219C28.4533 24.2051 28.7028 23.7064 28.89 23.2698C29.0324 22.9377 29.1256 22.6714 29.1752 22.4751L29.167 22.478C28.3233 22.7696 27.0837 23.0477 25.4307 23.0477H13.6331C11.9266 23.0477 10.7214 22.8041 9.9016 22.5247C9.95379 22.7154 10.043 22.9649 10.1737 23.2698C10.361 23.7064 10.6104 24.2051 10.8904 24.7219C11.4014 25.6654 11.9961 26.6363 12.4529 27.3432H19.5301V27.3636ZM23.0446 13.6795L23.0903 13.6748C24.0019 13.5796 26.118 13.3458 27.2132 13.1785C27.6785 13.1074 27.8887 13.219 27.9959 13.3097C28.1315 13.4244 28.2495 13.6348 28.3037 13.9399C28.3352 14.1177 28.4065 14.5493 28.4965 15.1318H10.5673C10.6572 14.5493 10.7286 14.1177 10.7601 13.9399C10.8143 13.6348 10.9322 13.4244 11.0679 13.3097C11.1751 13.219 11.3853 13.1074 11.8506 13.1785C12.9457 13.3458 15.0619 13.5796 15.9734 13.6748L16.0192 13.6795H23.0446ZM28.7374 16.7682C28.7888 17.1355 28.8407 17.5188 28.8905 17.9066C29.0079 18.8209 29.1131 19.7514 29.1758 20.5487C29.1797 20.5986 29.1834 20.6477 29.187 20.6959C29.0406 20.7663 28.8428 20.8513 28.5922 20.9379C27.9267 21.1679 26.8812 21.4114 25.4307 21.4114H13.6331C12.0013 21.4114 10.9629 21.1644 10.3591 20.9433C10.1483 20.8661 9.98888 20.7915 9.8743 20.7304C9.87857 20.6711 9.88314 20.6105 9.88799 20.5487C9.95066 19.7514 10.0558 18.8209 10.1733 17.9066C10.2231 17.5188 10.2749 17.1355 10.3264 16.7682H28.7374Z" fill="#0D171F"/>
</svg>
