<svg width="40" height="40" viewBox="0 0 40 40" fill="none" xmlns="http://www.w3.org/2000/svg">
<path d="M10.0002 21.8753C10.0002 22.0395 9.96784 22.202 9.90502 22.3537C9.84221 22.5053 9.75013 22.6431 9.63406 22.7592C9.51798 22.8753 9.38018 22.9674 9.22852 23.0302C9.07686 23.093 8.91431 23.1253 8.75015 23.1253H8.75008L1.87485 23.1247C1.64264 23.1247 1.41504 23.06 1.21754 22.9378C1.02005 22.8157 0.860484 22.641 0.756728 22.4332C0.652971 22.2255 0.609129 21.993 0.630117 21.7617C0.651104 21.5305 0.736092 21.3096 0.875551 21.124C1.98342 19.6396 3.46103 18.4716 5.16106 17.7363C4.43057 17.0686 3.86913 16.2369 3.52297 15.3097C3.17681 14.3826 3.05582 13.3864 3.16998 12.4033C3.28414 11.4202 3.63017 10.4783 4.17959 9.65515C4.729 8.83197 5.46609 8.15106 6.33015 7.66848C7.19422 7.18591 8.16055 6.91547 9.14959 6.87944C10.1386 6.84341 11.1221 7.04281 12.019 7.46123C12.9158 7.87965 13.7005 8.50512 14.3084 9.28614C14.9162 10.0672 15.3299 10.9814 15.5153 11.9536C15.5632 12.2061 15.5322 12.4672 15.4263 12.7015C15.3205 12.9357 15.1451 13.1316 14.9239 13.2625C12.9002 14.4597 11.3599 16.3281 10.5709 18.5431C10.1919 19.6131 9.99882 20.7401 10.0002 21.8753ZM39.1251 21.1237C38.0172 19.6393 36.5396 18.4713 34.8396 17.736C35.5701 17.0683 36.1315 16.2366 36.4777 15.3094C36.8239 14.3823 36.9448 13.3861 36.8307 12.4031C36.7165 11.42 36.3705 10.4781 35.8211 9.6549C35.2717 8.83172 34.5346 8.15081 33.6706 7.66822C32.8065 7.18564 31.8402 6.91519 30.8512 6.87915C29.8621 6.8431 28.8787 7.04248 27.9818 7.46088C27.0849 7.87928 26.3002 8.50473 25.6924 9.28574C25.0845 10.0667 24.6708 10.981 24.4854 11.9531C24.4375 12.2056 24.4685 12.4667 24.5743 12.701C24.6802 12.9352 24.8556 13.1311 25.0768 13.262C27.1005 14.4593 28.6407 16.3278 29.4298 18.5428C29.8088 19.6128 30.0018 20.7398 30.0005 21.875C30.0005 22.0392 30.0328 22.2017 30.0956 22.3534C30.1585 22.505 30.2506 22.6428 30.3666 22.7589C30.4827 22.875 30.6206 22.9671 30.7722 23.0299C30.9239 23.0927 31.0865 23.125 31.2506 23.125L38.1258 23.1244C38.358 23.1244 38.5856 23.0596 38.7831 22.9375C38.9806 22.8154 39.1401 22.6407 39.2439 22.4329C39.3476 22.2252 39.3915 21.9927 39.3705 21.7614C39.3495 21.5301 39.2645 21.3093 39.1251 21.1236L39.1251 21.1237ZM24.557 27.8265C25.8025 26.8738 26.7181 25.5548 27.175 24.0547C27.6319 22.5547 27.6072 20.9492 27.1043 19.464C26.6014 17.9787 25.6456 16.6885 24.3714 15.7746C23.0972 14.8608 21.5685 14.3693 20.0005 14.3693C18.4324 14.3693 16.9038 14.8608 15.6295 15.7746C14.3553 16.6885 13.3995 17.9787 12.8966 19.464C12.3937 20.9492 12.369 22.5547 12.8259 24.0547C13.2829 25.5548 14.1985 26.8738 15.444 27.8265C13.0104 28.9009 11.0387 30.8066 9.8822 33.2022C9.78931 33.3928 9.74642 33.6038 9.75755 33.8155C9.76869 34.0272 9.83349 34.2326 9.94586 34.4124C10.0582 34.5922 10.2145 34.7404 10.3999 34.8432C10.5853 34.9459 10.7939 34.9998 11.0059 34.9998H28.9951C29.2071 34.9998 29.4156 34.9459 29.601 34.8431C29.7864 34.7404 29.9426 34.5921 30.055 34.4124C30.1674 34.2326 30.2322 34.0272 30.2433 33.8155C30.2545 33.6038 30.2116 33.3928 30.1187 33.2022C28.9622 30.8066 26.9906 28.9009 24.557 27.8265Z" fill="#74BEF3"/>
</svg>
