<svg width="24" height="24" viewBox="0 0 24 24" fill="FFFFFF" xmlns="http://www.w3.org/2000/svg">
<path d="M5.10056 6.51482C4.71003 6.12429 4.71003 5.49113 5.10056 5.1006C5.49108 4.71008 6.12425 4.71008 6.51477 5.1006L19.2427 17.8285C19.6332 18.219 19.6332 18.8522 19.2427 19.2427C18.8522 19.6333 18.219 19.6333 17.8285 19.2427L5.10056 6.51482Z" fill="#474B50"/>
<path d="M17.6068 4.87883C17.9973 4.48831 18.6304 4.48831 19.021 4.87883C19.4115 5.26935 19.4115 5.90252 19.021 6.29304L6.29304 19.021C5.90252 19.4115 5.26935 19.4115 4.87883 19.021C4.48831 18.6304 4.48831 17.9973 4.87883 17.6068L17.6068 4.87883Z" fill="#474B50"/>
</svg>
