<svg width="41" height="40" viewBox="0 0 41 40" fill="none" xmlns="http://www.w3.org/2000/svg">
<path d="M20.5041 29.3553C20.5006 29.3529 20.4994 29.3529 20.4959 29.3553C20.0964 29.6221 19.6802 29.8631 19.25 30.0768V36.2499C19.25 36.5814 19.3817 36.8993 19.6161 37.1338C19.8505 37.3682 20.1685 37.4999 20.5 37.4999C20.8315 37.4999 21.1495 37.3682 21.3839 37.1338C21.6183 36.8993 21.75 36.5814 21.75 36.2499V30.0767C21.3199 29.863 20.9038 29.622 20.5043 29.3553H20.5041Z" fill="#74BEF3"/>
<path d="M31.4533 9.78058C30.5475 7.62327 29.0249 5.78147 27.0764 4.48624C25.1279 3.19101 22.8403 2.50003 20.5006 2.5C18.1608 2.49997 15.8732 3.19088 13.9247 4.48605C11.9761 5.78123 10.4534 7.62299 9.54766 9.78027C7.60128 10.6813 5.95179 12.118 4.79223 13.9223C3.63268 15.7267 3.01103 17.8239 3.00004 19.9687C2.98356 26.0339 7.9001 31.0931 13.9601 31.2463C15.7926 31.2955 17.6091 30.8939 19.25 30.0769V24.5226L12.441 21.118C12.2941 21.0447 12.163 20.9431 12.0553 20.8191C11.9476 20.6951 11.8655 20.5511 11.8135 20.3953C11.7615 20.2395 11.7407 20.075 11.7523 19.9112C11.7639 19.7474 11.8077 19.5874 11.8811 19.4405C11.9546 19.2936 12.0562 19.1627 12.1803 19.0551C12.3044 18.9475 12.4485 18.8654 12.6043 18.8136C12.7602 18.7617 12.9247 18.741 13.0885 18.7528C13.2523 18.7645 13.4122 18.8084 13.559 18.882L19.25 21.7275V13.75C19.25 13.4185 19.3817 13.1005 19.6162 12.8661C19.8506 12.6317 20.1685 12.5 20.5 12.5C20.8316 12.5 21.1495 12.6317 21.3839 12.8661C21.6183 13.1005 21.75 13.4185 21.75 13.75V17.9775L27.441 15.132C27.5879 15.0584 27.7478 15.0145 27.9116 15.0028C28.0754 14.991 28.2399 15.0117 28.3957 15.0636C28.5516 15.1154 28.6957 15.1975 28.8198 15.3051C28.9438 15.4127 29.0455 15.5436 29.119 15.6905C29.1924 15.8374 29.2362 15.9974 29.2478 16.1612C29.2594 16.325 29.2386 16.4895 29.1866 16.6453C29.1346 16.8011 29.0524 16.9451 28.9448 17.0691C28.8371 17.1931 28.706 17.2947 28.559 17.368L21.75 20.7726V30.0768C23.3029 30.8506 25.0146 31.2523 26.7496 31.25C26.8463 31.25 26.9432 31.2488 27.0403 31.2463C33.1003 31.093 38.0168 26.0336 38 19.9681C37.9889 17.8236 37.3673 15.7266 36.208 13.9224C35.0486 12.1183 33.3993 10.6816 31.4533 9.78058Z" fill="#74BEF3"/>
</svg>
