<svg width="39" height="32" viewBox="0 0 39 32" fill="none" xmlns="http://www.w3.org/2000/svg">
<path d="M36.5 24C36.5 24.7792 36.1489 25.5968 35.3611 26.4246C34.5684 27.2575 33.3741 28.0531 31.8218 28.743C28.7197 30.1217 24.3641 31 19.5 31C14.6359 31 10.2803 30.1217 7.17822 28.743C5.62592 28.0531 4.43161 27.2575 3.63892 26.4246C2.85114 25.5968 2.5 24.7792 2.5 24C2.5 23.2208 2.85114 22.4032 3.63892 21.5754C4.43161 20.7425 5.62592 19.9469 7.17822 19.257C10.2803 17.8783 14.6359 17 19.5 17C24.3641 17 28.7197 17.8783 31.8218 19.257C33.3741 19.9469 34.5684 20.7425 35.3611 21.5754C36.1489 22.4032 36.5 23.2208 36.5 24Z" stroke="white" stroke-width="2"/>
<circle cx="19.5" cy="14.5" r="5" fill="#212223" stroke="white" stroke-width="2"/>
<path d="M26.5 26.5C26.5 22.634 23.366 19.5 19.5 19.5C15.634 19.5 12.5 22.634 12.5 26.5" stroke="white" stroke-width="2" stroke-linecap="round"/>
<path d="M8.3109 29V15.51C8.3109 15.0673 8.01983 14.6795 7.59897 14.5422C4.9076 13.6641 1.49989 12.064 1.5 9.36364C1.50024 3.39146 13.1756 2 19.5 2" stroke="white" stroke-width="2"/>
<path d="M30.1891 29V15.51C30.1891 15.0673 30.4802 14.6795 30.901 14.5422C33.5924 13.6641 37.0001 12.064 37 9.36364C36.9998 3.39146 25.3244 2 19 2" stroke="white" stroke-width="2"/>
<line x1="2.5" y1="12" x2="2.5" y2="24" stroke="white" stroke-width="2"/>
<line x1="36.5" y1="11" x2="36.5" y2="24" stroke="white" stroke-width="2"/>
</svg>
