<svg width="104" height="45" viewBox="0 0 104 45" fill="none" xmlns="http://www.w3.org/2000/svg">
<path d="M46.0505 7.61519H49.3015C49.6837 7.5812 50.0688 7.62842 50.4321 7.75382C50.7954 7.87922 51.1291 8.08007 51.412 8.34362C51.6949 8.60716 51.9207 8.92763 52.0753 9.28468C52.2298 9.64174 52.3096 10.0276 52.3096 10.4177C52.3096 10.8077 52.2298 11.1936 52.0753 11.5506C51.9207 11.9077 51.6949 12.2282 51.412 12.4917C51.1291 12.7553 50.7954 12.9561 50.4321 13.0815C50.0688 13.2069 49.6837 13.2541 49.3015 13.2202H47.8496V16.0119H46.0505V7.61519ZM49.1227 11.6157C49.2846 11.6314 49.448 11.6125 49.6024 11.5602C49.7568 11.5079 49.8987 11.4234 50.019 11.3122C50.1394 11.2009 50.2356 11.0653 50.3014 10.914C50.3672 10.7627 50.4012 10.5991 50.4012 10.4337C50.4012 10.2683 50.3672 10.1047 50.3014 9.95344C50.2356 9.80216 50.1394 9.66654 50.019 9.55526C49.8987 9.44398 49.7568 9.3595 49.6024 9.30724C49.448 9.25497 49.2846 9.23606 49.1227 9.25174H47.8496V11.6157H49.1227Z" fill="white"/>
<path d="M52.9208 12.9855C52.887 12.5744 52.9381 12.1607 53.0708 11.7708C53.2034 11.381 53.4146 11.0236 53.6909 10.7215C53.9672 10.4194 54.3025 10.1793 54.6754 10.0166C55.0482 9.8539 55.4504 9.77213 55.8561 9.77654C57.4869 9.77654 58.7283 10.7927 58.7283 13.1031V13.5203H54.783C54.8348 13.8397 55.0034 14.1275 55.2551 14.3258C55.5068 14.5242 55.823 14.6185 56.1402 14.5899C56.375 14.595 56.6079 14.5456 56.8212 14.4456C57.0345 14.3455 57.2226 14.1973 57.3711 14.0123L58.4863 15.082C58.1586 15.4277 57.7643 15.701 57.328 15.8851C56.8918 16.0691 56.423 16.1598 55.9508 16.1516C55.5399 16.1598 55.1317 16.0813 54.7521 15.9212C54.3725 15.7611 54.0295 15.5229 53.7449 15.2215C53.4603 14.92 53.2401 14.5619 53.0983 14.1698C52.9564 13.7776 52.896 13.3598 52.9208 12.9427M56.9292 12.2581C56.8556 11.5842 56.5084 11.1884 55.8771 11.1884C55.6038 11.2061 55.3462 11.3245 55.1525 11.5214C54.9588 11.7183 54.8424 11.9802 54.825 12.2581H56.9292Z" fill="white"/>
<path d="M63.4943 13.5417C63.0207 13.8161 62.4821 13.953 61.9372 13.9375C61.6191 13.9629 61.2992 13.9182 60.9996 13.8065C60.6999 13.6949 60.4274 13.5188 60.2008 13.2904C59.9741 13.062 59.7985 12.7865 59.686 12.4829C59.5736 12.1792 59.5268 11.8545 59.549 11.5308V9.95839H61.2534V11.5308C61.26 11.6634 61.2927 11.7933 61.3495 11.9129C61.4063 12.0325 61.4861 12.1393 61.5842 12.227C61.6822 12.3147 61.7965 12.3816 61.9204 12.4237C62.0443 12.4658 62.1752 12.4822 62.3055 12.4721C62.7536 12.4791 63.1922 12.3404 63.5574 12.0763V9.93701H65.2618V15.9912H63.5574L63.4943 13.5417Z" fill="white"/>
<path d="M66.8399 9.9585H68.5654V12.1941H70.5118V9.9585H72.2372V16.0127H70.5118V13.7237H68.5654V16.0127H66.8399V9.9585Z" fill="white"/>
<path d="M73.4681 12.9638C73.4888 12.3552 73.6851 11.7664 74.0327 11.2705C74.3803 10.7747 74.8637 10.3938 75.4227 10.1753C75.9817 9.95684 76.5916 9.91046 77.1763 10.042C77.7611 10.1735 78.2948 10.477 78.7111 10.9148C79.1273 11.3526 79.4076 11.9052 79.5171 12.5038C79.6265 13.1024 79.5603 13.7206 79.3266 14.2812C79.0929 14.8418 78.7021 15.3201 78.2028 15.6564C77.7036 15.9928 77.1181 16.1723 76.5192 16.1727C76.1057 16.1872 75.6937 16.1132 75.3101 15.9556C74.9264 15.798 74.5796 15.5603 74.292 15.2578C74.0044 14.9553 73.7825 14.5949 73.6406 14.1997C73.4987 13.8045 73.4399 13.3835 73.4681 12.9638ZM77.7712 12.9638C77.7712 12.0332 77.2978 11.37 76.5192 11.37C75.7407 11.37 75.2567 12.0332 75.2567 12.9638C75.2567 13.8944 75.7407 14.6003 76.5192 14.6003C77.2978 14.6003 77.7712 13.8837 77.7712 12.9638Z" fill="white"/>
<path d="M80.7697 9.95802H82.4846V13.3809L84.7677 9.95802H86.2511V16.0122H84.5257V12.6L82.2637 16.0122H80.7697V9.95802ZM81.4851 8.11823L82.3794 7.21973C82.4659 7.43562 82.6105 7.62236 82.7966 7.75856C82.9826 7.89477 83.2027 7.97494 83.4315 7.98987C83.6758 7.99578 83.9159 7.92503 84.1193 7.78723C84.3226 7.64942 84.4792 7.45126 84.5678 7.21973L85.4095 8.11823C85.2257 8.48215 84.9468 8.78752 84.6034 9.00076C84.26 9.214 83.8654 9.32686 83.4631 9.32693C83.0591 9.31479 82.665 9.19722 82.3186 8.98555C81.9723 8.77388 81.6852 8.47521 81.4851 8.11823Z" fill="white"/>
<path d="M46.9449 24.2918H45.1984V22.7729H50.5536L49.996 24.2918H48.6703V28.8271H46.9449V24.2918Z" fill="white"/>
<path d="M53.0891 31.0518H51.3741V22.7728H53.0891V23.3718C53.2898 23.1214 53.5461 22.923 53.8369 22.7928C54.1277 22.6627 54.4447 22.6045 54.7619 22.623C55.5069 22.7397 56.1862 23.1237 56.6769 23.7054C57.1677 24.2871 57.4375 25.0281 57.4375 25.7945C57.4375 26.5609 57.1677 27.3019 56.6769 27.8836C56.1862 28.4653 55.5069 28.8493 54.7619 28.966C54.4459 28.9833 54.1302 28.9256 53.8399 28.7975C53.5496 28.6694 53.2925 28.4744 53.0891 28.228V31.0518ZM54.3831 27.3829C54.7031 27.4308 55.0298 27.3783 55.3196 27.2324C55.6093 27.0865 55.8484 26.8541 56.0049 26.5664C56.1613 26.2787 56.2277 25.9492 56.1951 25.6221C56.1625 25.295 56.0325 24.9858 55.8224 24.7358C55.6124 24.4859 55.3323 24.307 55.0196 24.2232C54.7069 24.1394 54.3765 24.1546 54.0725 24.2667C53.7685 24.3789 53.5055 24.5827 53.3184 24.8509C53.1314 25.1191 53.0294 25.439 53.0259 25.7678C53.0025 25.966 53.0198 26.1669 53.0766 26.358C53.1335 26.5491 53.2287 26.7261 53.3562 26.8779C53.4838 27.0297 53.6409 27.1529 53.8176 27.2398C53.9944 27.3268 54.1869 27.3755 54.3831 27.3829Z" fill="white"/>
<path d="M58.318 26.9337C58.318 25.971 59.1176 24.9549 60.9482 24.9549C61.2997 24.9513 61.651 24.9691 62.0003 25.0083V24.9334C62.0003 24.3665 61.5479 24.1633 61.0429 24.1633C60.5477 24.1679 60.0647 24.3204 59.6541 24.6019L58.602 23.5322C59.2892 22.9213 60.1722 22.5866 61.085 22.5909C61.4127 22.5482 61.7457 22.5772 62.0615 22.6762C62.3772 22.7751 62.6685 22.9417 62.9157 23.1646C63.1629 23.3876 63.3602 23.6617 63.4945 23.9687C63.6288 24.2756 63.6969 24.6082 63.6942 24.9442V28.7949H61.9898V28.1852C61.8143 28.4481 61.5719 28.6577 61.2883 28.7914C61.0048 28.9252 60.6909 28.9781 60.3801 28.9446C60.1129 28.9534 59.8467 28.9067 59.5978 28.8075C59.349 28.7082 59.1226 28.5584 58.9326 28.3672C58.7426 28.176 58.5929 27.9474 58.4926 27.6954C58.3924 27.4435 58.3437 27.1733 58.3496 26.9016M61.9898 26.4844V26.2812C61.7408 26.2269 61.487 26.1983 61.2323 26.1956C60.4432 26.1956 60.1066 26.4845 60.096 26.8909C60.0855 27.2974 60.3906 27.5862 60.9272 27.5755C61.2062 27.5755 61.4738 27.4628 61.6711 27.2622C61.8684 27.0616 61.9793 26.7895 61.9793 26.5058" fill="white"/>
<path d="M65.2303 22.7729H66.9452V24.9978H68.8916V22.7729H70.617V28.8271H68.8916V26.5381H66.9452V28.8271H65.2303V22.7729Z" fill="white"/>
<path d="M71.8585 25.7785C71.8195 25.3645 71.8676 24.9468 71.9996 24.5532C72.1316 24.1596 72.3445 23.799 72.6241 23.4955C72.9038 23.1919 73.2438 22.9524 73.6215 22.7928C73.9992 22.6331 74.406 22.557 74.8149 22.5695C75.2283 22.5493 75.6416 22.6137 76.0301 22.7589C76.4187 22.904 76.7746 23.127 77.0769 23.4146L76.0248 24.4842C75.885 24.3491 75.7197 24.2443 75.5388 24.1762C75.3579 24.1082 75.1653 24.0783 74.9727 24.0884C74.1941 24.0884 73.7207 24.7623 73.7207 25.6929C73.7207 26.6235 74.1941 27.3294 74.9727 27.3294C75.1644 27.3391 75.3561 27.3101 75.5366 27.244C75.7172 27.1779 75.8832 27.0761 76.0248 26.9444L77.0769 28.014C76.7741 28.3002 76.4178 28.5215 76.0292 28.6649C75.6406 28.8082 75.2277 28.8706 74.8149 28.8484C74.4065 28.8592 74.0004 28.7819 73.6235 28.6217C73.2466 28.4614 72.9073 28.2219 72.628 27.9187C72.3488 27.6156 72.1358 27.2557 72.0031 26.8628C71.8705 26.47 71.8212 26.053 71.8585 25.6394" fill="white"/>
<path d="M78.0974 22.7729H83.2842V28.8271H81.5588V24.2918H79.8123V28.8271H78.0974V22.7729Z" fill="white"/>
<path d="M84.5047 25.7782C84.5253 25.1697 84.7217 24.5808 85.0693 24.085C85.4168 23.5891 85.9002 23.2082 86.4592 22.9898C87.0182 22.7713 87.6281 22.7249 88.2129 22.8564C88.7977 22.9879 89.3314 23.2915 89.7477 23.7292C90.1639 24.167 90.4442 24.7197 90.5537 25.3183C90.6631 25.9169 90.5969 26.535 90.3632 27.0957C90.1295 27.6563 89.7386 28.1345 89.2394 28.4709C88.7402 28.8072 88.1547 28.9868 87.5558 28.9872C87.1418 29.0033 86.7292 28.9305 86.3447 28.7735C85.9603 28.6165 85.6128 28.3788 85.3248 28.0759C85.0369 27.7731 84.8151 27.4119 84.6737 27.016C84.5324 26.6201 84.4748 26.1983 84.5047 25.7782ZM88.8078 25.7782C88.8078 24.8476 88.3343 24.1845 87.5558 24.1845C86.7772 24.1845 86.2933 24.8476 86.2933 25.7782C86.2933 26.7088 86.7772 27.4148 87.5558 27.4148C88.3343 27.4148 88.8078 26.6874 88.8078 25.7782Z" fill="white"/>
<path d="M93.5632 31.0516H91.8378V22.7725H93.5632V23.3715C93.7698 23.1254 94.0287 22.9302 94.3203 22.8005C94.6118 22.6708 94.9286 22.61 95.2466 22.6228C95.9916 22.7395 96.6709 23.1234 97.1616 23.7051C97.6524 24.2868 97.9221 25.0279 97.9221 25.7943C97.9221 26.5606 97.6524 27.3017 97.1616 27.8834C96.6709 28.4651 95.9916 28.8491 95.2466 28.9658C94.9294 28.9798 94.6132 28.9207 94.3217 28.7929C94.0302 28.6651 93.7709 28.4719 93.5632 28.2277V31.0516ZM94.8468 27.3827C95.2339 27.3372 95.5911 27.1485 95.8504 26.8527C96.1097 26.5569 96.2529 26.1745 96.2529 25.7782C96.2529 25.382 96.1097 24.9996 95.8504 24.7037C95.5911 24.4079 95.2339 24.2193 94.8468 24.1738C94.4596 24.2193 94.1024 24.4079 93.8432 24.7037C93.5839 24.9996 93.4406 25.382 93.4406 25.7782C93.4406 26.1745 93.5839 26.5569 93.8432 26.8527C94.1024 27.1485 94.4596 27.3372 94.8468 27.3827Z" fill="white"/>
<path d="M100.391 24.2918H98.6449V22.7729H104L103.442 24.2918H102.106V28.8271H100.391V24.2918Z" fill="white"/>
<path d="M27.5862 24.0029L28.6383 23.6606V24.7837C28.0176 24.9976 27.9965 24.9976 27.5862 25.126C26.9713 25.3173 26.3349 25.4288 25.6925 25.4576C25.1388 25.4894 24.5838 25.4894 24.0302 25.4576H23.8197C23.5567 25.4576 23.2832 25.3934 23.0201 25.3399H22.8728C21.2421 25.019 19.7166 24.3452 18.0753 23.9494C16.084 23.3746 13.9712 23.4006 11.9942 24.0242C11.3208 24.2489 10.6791 24.4949 9.97415 24.7516V23.6285C10.6791 23.3718 11.3208 23.1258 11.9942 22.9011C13.4273 22.4376 14.9443 22.306 16.434 22.516C16.9861 22.5903 17.5339 22.6938 18.0753 22.8262C19.8112 23.2541 21.5051 24.0135 23.3358 24.2917H23.4936C23.6886 24.3243 23.8853 24.3457 24.0827 24.3558H24.3142C25.4316 24.4854 26.5633 24.3799 27.6388 24.0457M12.0468 21.7138C11.3734 21.9384 10.7316 22.1738 10.0267 22.4412V17.478H11.0788V13.5204H10.0267V11.5201H15.2872L16.3393 10.397H18.9906L20.0427 11.5201H20.8002C21.0907 11.5186 21.3755 11.6026 21.6201 11.7621C21.8647 11.9215 22.0586 12.1495 22.1785 12.4186L24.4299 17.478H27.5126L25.4084 23.222C24.9665 23.222 24.5246 23.222 24.0617 23.222H23.8513C23.5883 23.222 23.3147 23.1578 23.0517 23.1044H22.9044C21.2737 22.7835 19.7481 22.1096 18.1069 21.7138C16.1155 21.139 14.0028 21.165 12.0257 21.7887M17.6439 17.478H23.2516L21.5262 13.5204H17.6439V17.478ZM12.1941 17.478H16.5498V13.5204H12.1941V17.478ZM27.6178 21.7566L26.9339 21.9385L26.5131 23.1365C26.869 23.0745 27.2204 22.9888 27.5652 22.8798C27.9755 22.7514 27.9965 22.7514 28.6173 22.5267V21.4571L27.5652 21.7994" fill="white"/>
<path d="M18.3489 3.24318e-06C14.7229 -0.00217067 11.1777 1.08859 8.16131 3.13438C5.14494 5.18018 2.79282 8.08917 1.40222 11.4937C0.0116186 14.8983 -0.355035 18.6456 0.348614 22.2619C1.05226 25.8783 2.79463 29.2014 5.35548 31.8113C5.56524 32.024 5.83214 32.1691 6.12269 32.2283C6.41324 32.2875 6.7145 32.2581 6.98869 32.1438C7.26288 32.0296 7.49776 31.8356 7.66391 31.5861C7.83005 31.3367 7.92004 31.0429 7.92258 30.7416C7.91135 30.3373 7.74525 29.9535 7.45967 29.672C5.3148 27.4866 3.85515 24.7038 3.26517 21.6754C2.67519 18.647 2.98134 15.5087 4.14493 12.6571C5.30852 9.80548 7.27735 7.36846 9.80266 5.65396C12.328 3.93947 15.2965 3.02441 18.3331 3.02441C21.3697 3.02441 24.3382 3.93947 26.8635 5.65396C29.3888 7.36846 31.3576 9.80548 32.5212 12.6571C33.6848 15.5087 33.991 18.647 33.401 21.6754C32.811 24.7038 31.3514 27.4866 29.2065 29.672L16.2341 42.8607L18.3383 45L31.3212 31.822C33.8844 29.214 35.6295 25.8919 36.3359 22.2757C37.0423 18.6595 36.6783 14.9116 35.2898 11.5057C33.9014 8.09979 31.5509 5.18889 28.5355 3.14094C25.5201 1.093 21.9752 -5.16538e-05 18.3489 3.24318e-06Z" fill="white"/>
</svg>
