<svg width="116" height="45" viewBox="0 0 116 45" fill="none" xmlns="http://www.w3.org/2000/svg">
<path d="M16.3448 11.4585C16.8776 11.4585 17.3985 11.3011 17.8416 11.0062C18.2846 10.7113 18.63 10.2921 18.8339 9.8016C19.0378 9.31114 19.0911 8.77145 18.9872 8.25078C18.8832 7.73012 18.6266 7.25186 18.2498 6.87648C17.8731 6.5011 17.393 6.24547 16.8704 6.1419C16.3477 6.03834 15.806 6.0915 15.3137 6.29466C14.8214 6.49781 14.4007 6.84182 14.1046 7.28322C13.8086 7.72462 13.6506 8.24358 13.6506 8.77445C13.6465 9.12804 13.7135 9.47884 13.8475 9.8063C13.9815 10.1338 14.1798 10.4313 14.4307 10.6813C14.6817 10.9313 14.9803 11.1289 15.309 11.2624C15.6377 11.3958 15.9898 11.4625 16.3448 11.4585Z" fill="white" fill-opacity="0.8"/>
<path d="M15.4667 18.5169L21.364 16.2404V13.616L18.4602 12.5522H14.1395L11.3256 13.616V21.6782L13.7105 22.7419L14.5287 31.1521H18.0311L18.3006 28.1697C14.838 24.1933 15.3769 18.5368 15.3769 18.5368" fill="white" fill-opacity="0.8"/>
<path d="M15.9955 18.8946C15.9955 20.4554 16.0654 26.7282 21.3141 29.7006C26.5628 26.7183 26.6725 20.4554 26.6326 18.8946L21.3141 16.9064L15.9955 18.8946ZM21.3141 31.0725L21.0047 30.9134C14.0198 27.1855 14.7582 18.7455 14.7981 18.3976V18.0198L21.2742 15.5146L27.7602 18.0198V18.3976C27.7602 18.7455 28.5285 27.1855 21.5536 30.9134L21.2342 31.0725H21.3141Z" fill="white" fill-opacity="0.8"/>
<path d="M37.4193 18.6659C37.4237 15.599 36.6684 12.5785 35.2204 9.87201C33.7723 7.16557 31.6764 4.85693 29.1183 3.15074C26.5602 1.44455 23.6191 0.393542 20.5556 0.0909496C17.4922 -0.211643 14.4012 0.243516 11.5566 1.41605C8.71207 2.58858 6.20186 4.44226 4.24858 6.81274C2.29531 9.18321 0.959322 11.9972 0.359089 15.0053C-0.241144 18.0133 -0.0870712 21.1224 0.807631 24.057C1.70233 26.9915 3.31002 29.6607 5.48816 31.828C5.6285 31.9742 5.79742 32.0901 5.98448 32.1688C6.17154 32.2474 6.37278 32.2871 6.57581 32.2853C6.77499 32.2853 6.97222 32.2462 7.15624 32.1703C7.34026 32.0943 7.50746 31.983 7.6483 31.8427C7.78914 31.7024 7.90086 31.5358 7.97709 31.3525C8.05331 31.1692 8.09255 30.9727 8.09255 30.7743C8.08925 30.361 7.92462 29.9652 7.63353 29.6708C5.44494 27.4871 3.95524 24.706 3.35268 21.6791C2.75013 18.6522 3.06176 15.5152 4.2482 12.6647C5.43464 9.81418 7.44264 7.37802 10.0184 5.66408C12.5942 3.95015 15.6222 3.03536 18.7196 3.03536C21.8171 3.03536 24.8451 3.95015 27.4209 5.66408C29.9967 7.37802 32.0047 9.81418 33.1911 12.6647C34.3775 15.5152 34.6892 18.6522 34.0866 21.6791C33.484 24.706 31.9943 27.4871 29.8057 29.6708L16.5743 42.8527L18.7296 45L31.9112 31.8181C33.6521 30.0942 35.0346 28.0452 35.9798 25.7884C36.9249 23.5316 37.4141 21.1113 37.4193 18.6659Z" fill="white" fill-opacity="0.8"/>
<path d="M54.1733 13.6058C54.1733 15.1069 53.0257 16.1805 51.1797 16.1805H47.7272V7.78027H53.7143L53.1954 9.17202H49.3636V11.031H51.2196C53.1056 11.031 54.2132 12.1146 54.2132 13.6058H54.1733ZM50.9702 12.3631H49.2639V14.8484H50.9702C51.8583 14.8484 52.457 14.4309 52.457 13.6058C52.457 12.7806 51.8583 12.3631 50.9702 12.3631Z" fill="white" fill-opacity="0.8"/>
<path d="M54.9816 13.1787C54.9584 12.7731 55.0188 12.367 55.1588 11.9854C55.2989 11.6039 55.5157 11.2548 55.796 10.9598C56.0764 10.6647 56.4142 10.4297 56.7889 10.2694C57.1637 10.1091 57.5673 10.0267 57.9751 10.0273C59.6016 10.0273 60.9088 11.0215 60.9088 13.3477V13.6559H56.638C56.6901 14.0362 56.8847 14.3828 57.1827 14.6262C57.4806 14.8696 57.8599 14.9917 58.2445 14.9681C58.7646 14.9633 59.2623 14.7564 59.6315 14.3915L60.6294 15.3856C60.2993 15.7119 59.9064 15.9682 59.4742 16.1391C59.042 16.3099 58.5796 16.3918 58.1148 16.3797C57.7004 16.3927 57.2878 16.3198 56.9031 16.1656C56.5185 16.0114 56.1702 15.7793 55.8803 15.484C55.5904 15.1886 55.3653 14.8365 55.2192 14.4499C55.073 14.0634 55.0091 13.6508 55.0314 13.2383L54.9816 13.1787ZM59.2623 12.5624C59.2597 12.2187 59.1208 11.89 58.876 11.6479C58.6311 11.4058 58.3001 11.27 57.9551 11.27C57.6075 11.2767 57.2751 11.4133 57.0238 11.6527C56.7725 11.892 56.6205 12.2167 56.5981 12.5624H59.2623Z" fill="white" fill-opacity="0.8"/>
<path d="M61.4875 15.4746L62.4853 14.5302C62.9519 14.8711 63.5134 15.0588 64.0919 15.0671C64.7305 15.0671 65.2195 14.8185 65.2195 14.3811C65.2195 13.9437 64.8902 13.725 64.052 13.725H63.2537V12.5221H64.1019C64.7704 12.5221 65.0997 12.2537 65.0997 11.876C65.0997 11.4982 64.6507 11.2695 64.1917 11.2695C63.6507 11.2845 63.1222 11.4349 62.655 11.7069L61.737 10.8023C62.4906 10.2934 63.381 10.0232 64.2914 10.0269C65.5986 10.0269 66.5965 10.7128 66.5965 11.7368C66.5963 12.011 66.5197 12.2799 66.3753 12.5133C66.2308 12.7467 66.0241 12.9356 65.7782 13.059C66.063 13.153 66.3117 13.3325 66.4903 13.5727C66.6689 13.8129 66.7687 14.1022 66.7761 14.401C66.7761 15.5442 65.6186 16.2998 64.1517 16.2998C63.1938 16.3449 62.2516 16.045 61.4975 15.4548L61.4875 15.4746Z" fill="white" fill-opacity="0.8"/>
<path d="M67.6642 13.1687C67.6818 12.5672 67.877 11.9843 68.2252 11.4927C68.5735 11.001 69.0594 10.6226 69.6223 10.4045C70.1852 10.1864 70.8002 10.1384 71.3903 10.2664C71.9805 10.3945 72.5196 10.6929 72.9405 11.1245C73.3614 11.556 73.6453 12.1016 73.7568 12.6929C73.8683 13.2843 73.8024 13.8953 73.5674 14.4496C73.3324 15.0039 72.9386 15.4769 72.4353 15.8096C71.932 16.1422 71.3415 16.3198 70.7376 16.32C70.3231 16.3317 69.9107 16.2575 69.5265 16.1021C69.1423 15.9467 68.7948 15.7134 68.5058 15.4171C68.2169 15.1209 67.9929 14.768 67.848 14.381C67.7031 13.9939 67.6405 13.5811 67.6642 13.1687ZM72.2443 13.1687C72.2888 12.9479 72.2836 12.7201 72.2291 12.5016C72.1745 12.2831 72.0719 12.0794 71.9287 11.9052C71.7855 11.731 71.6052 11.5907 71.401 11.4943C71.1967 11.398 70.9735 11.348 70.7475 11.348C70.5215 11.348 70.2984 11.398 70.0941 11.4943C69.8898 11.5907 69.7096 11.731 69.5664 11.9052C69.4232 12.0794 69.3206 12.2831 69.266 12.5016C69.2114 12.7201 69.2062 12.9479 69.2508 13.1687C69.1984 13.3932 69.1975 13.6266 69.2484 13.8515C69.2992 14.0764 69.4003 14.287 69.5442 14.4675C69.6881 14.648 69.871 14.7938 70.0794 14.894C70.2878 14.9942 70.5162 15.0463 70.7475 15.0463C70.9789 15.0463 71.2073 14.9942 71.4157 14.894C71.624 14.7938 71.807 14.648 71.9509 14.4675C72.0948 14.287 72.1959 14.0764 72.2467 13.8515C72.2975 13.6266 72.2967 13.3932 72.2443 13.1687Z" fill="white" fill-opacity="0.8"/>
<path d="M75.1281 10.1665H80.297V16.171H78.7802V11.4588H76.6448V16.171H75.1281V10.1665Z" fill="white" fill-opacity="0.8"/>
<path d="M81.5642 14.3316C81.5642 13.3375 82.3425 12.3434 84.2385 12.3434C84.5478 12.3434 84.9968 12.3434 85.3561 12.413V12.244C85.3561 11.6077 84.8671 11.3095 84.2584 11.3095C83.7201 11.3184 83.1963 11.4843 82.7517 11.7867L81.8237 10.882C82.5228 10.3071 83.4018 9.99409 84.3083 9.99726C84.6323 9.95271 84.9622 9.97862 85.2752 10.0732C85.5883 10.1677 85.877 10.3287 86.1216 10.545C86.3663 10.7613 86.561 11.0279 86.6924 11.3263C86.8238 11.6247 86.8887 11.948 86.8828 12.2738V16.1409H85.386V15.5643C85.1858 15.8081 84.9303 16.0011 84.6406 16.1272C84.3509 16.2534 84.0352 16.3092 83.7196 16.29C83.446 16.3091 83.1714 16.2719 82.9129 16.1806C82.6544 16.0892 82.4176 15.9458 82.2172 15.7593C82.0168 15.5727 81.8572 15.347 81.7483 15.0962C81.6394 14.8454 81.5835 14.575 81.5842 14.3018L81.5642 14.3316ZM85.3561 13.8246V13.586C85.0595 13.5331 84.7592 13.5032 84.458 13.4966C83.55 13.4966 83.1109 13.8246 83.1109 14.3117C83.1206 14.4306 83.1546 14.5462 83.2107 14.6514C83.2669 14.7567 83.3441 14.8494 83.4376 14.9239C83.531 14.9984 83.6387 15.053 83.7542 15.0845C83.8696 15.116 83.9902 15.1237 84.1087 15.107C84.2734 15.1045 84.4359 15.0691 84.5865 15.0027C84.7371 14.9364 84.8728 14.8406 84.9854 14.7209C85.0981 14.6012 85.1854 14.4602 85.2422 14.3062C85.299 14.1523 85.3242 13.9885 85.3161 13.8246H85.3561Z" fill="white" fill-opacity="0.8"/>
<path d="M88.1301 13.1687C88.1084 12.7638 88.1697 12.3589 88.3104 11.9785C88.4511 11.5981 88.6682 11.2502 88.9484 10.9562C89.2285 10.6622 89.5659 10.4282 89.9399 10.2685C90.3139 10.1088 90.7167 10.0267 91.1236 10.0273C91.533 10.0131 91.9412 10.0796 92.3248 10.2229C92.7083 10.3662 93.0597 10.5835 93.3588 10.8623L92.361 11.8067C92.0321 11.5071 91.5991 11.3467 91.1536 11.3594C90.9322 11.3712 90.7158 11.4284 90.5177 11.5276C90.3197 11.6268 90.1444 11.7657 90.0029 11.9357C89.8614 12.1056 89.7567 12.3029 89.6954 12.5151C89.6341 12.7273 89.6176 12.9498 89.6468 13.1687C89.6468 14.2125 90.2455 14.9879 91.1536 14.9879C91.6008 15.0001 92.0348 14.8357 92.361 14.5306L93.3588 15.5247C93.0597 15.8035 92.7083 16.0209 92.3248 16.1642C91.9412 16.3075 91.533 16.3739 91.1236 16.3598C90.7158 16.3604 90.3122 16.278 89.9375 16.1177C89.5628 15.9574 89.2249 15.7225 88.9446 15.4274C88.6642 15.1323 88.4474 14.7832 88.3073 14.4017C88.1673 14.0201 88.107 13.6141 88.1301 13.2084V13.1687Z" fill="white" fill-opacity="0.8"/>
<path d="M94.4864 10.1665H96.0031V12.453H98.2583V10.1665H99.785V16.171H98.2583V13.7453H96.0031V16.171H94.4864V10.1665Z" fill="white" fill-opacity="0.8"/>
<path d="M103.028 10.1665V11.9957H104.275C104.572 11.9603 104.873 11.988 105.159 12.077C105.444 12.166 105.707 12.3143 105.931 12.512C106.154 12.7098 106.333 12.9525 106.456 13.2242C106.579 13.4959 106.642 13.7904 106.642 14.0883C106.642 14.3862 106.579 14.6807 106.456 14.9524C106.333 15.2241 106.154 15.4668 105.931 15.6645C105.707 15.8623 105.444 16.0105 105.159 16.0995C104.873 16.1885 104.572 16.2162 104.275 16.1809H101.511V10.2162L103.028 10.1665ZM104.076 14.9382C104.199 14.9571 104.326 14.9491 104.446 14.9148C104.566 14.8805 104.678 14.8207 104.772 14.7395C104.867 14.6583 104.944 14.5576 104.996 14.4444C105.048 14.3311 105.075 14.2079 105.075 14.0833C105.075 13.9587 105.048 13.8355 104.996 13.7223C104.944 13.609 104.867 13.5083 104.772 13.4271C104.678 13.3459 104.566 13.2861 104.446 13.2518C104.326 13.2175 104.199 13.2095 104.076 13.2284H103.028V14.9184L104.076 14.9382ZM107.359 10.1665H108.875V16.1312H107.359V10.1665Z" fill="white" fill-opacity="0.8"/>
<path d="M110.592 10.1664H112.118V13.8645L114.663 10.1664H116V16.131H114.483V12.4429L111.939 16.131H110.602V10.1664H110.592ZM111.28 8.39684L112.098 7.60156C112.224 7.80306 112.397 7.97145 112.602 8.09255C112.807 8.21366 113.038 8.28391 113.276 8.29742C113.522 8.29481 113.763 8.22946 113.976 8.10763C114.189 7.9858 114.367 7.81158 114.493 7.60156L115.282 8.39684C115.068 8.7312 114.773 9.00606 114.424 9.19561C114.075 9.38516 113.683 9.48317 113.286 9.48042C112.89 9.47262 112.502 9.3701 112.155 9.1815C111.808 8.9929 111.511 8.72376 111.29 8.39684H111.28Z" fill="white" fill-opacity="0.8"/>
<path d="M48.5953 24.3524H46.7792V23.0601H52.0678L51.5988 24.3524H50.112V29.0645H48.5953V24.3524Z" fill="white" fill-opacity="0.8"/>
<path d="M54.4626 31.2815H52.9459V23.0602H54.4626V23.7859C54.6795 23.4857 54.9686 23.2447 55.3033 23.0848C55.6381 22.925 56.0078 22.8516 56.3785 22.8713C57.1478 22.9678 57.8552 23.3407 58.3681 23.92C58.8809 24.4994 59.1639 25.2452 59.1639 26.0177C59.1639 26.7901 58.8809 27.536 58.3681 28.1153C57.8552 28.6946 57.1478 29.0675 56.3785 29.164C56.0255 29.1753 55.6749 29.1028 55.3557 28.9524C55.0364 28.802 54.7577 28.5781 54.5425 28.2991V31.2815H54.4626ZM55.9893 27.8518C56.3573 27.9003 56.7313 27.8359 57.0616 27.6673C57.3919 27.4987 57.6628 27.2338 57.8382 26.9079C58.0135 26.582 58.0851 26.2106 58.0432 25.8432C58.0014 25.4758 57.8482 25.1298 57.604 24.8514C57.3598 24.5729 57.0363 24.3752 56.6764 24.2846C56.3166 24.1939 55.9376 24.2147 55.5899 24.344C55.2422 24.4734 54.9424 24.7053 54.7303 25.0087C54.5182 25.3121 54.4039 25.6728 54.4028 26.0425C54.3793 26.2667 54.4026 26.4934 54.471 26.7083C54.5394 26.9232 54.6516 27.1217 54.8004 27.2915C54.9493 27.4612 55.1317 27.5986 55.3363 27.6951C55.5409 27.7915 55.7632 27.8448 55.9893 27.8518Z" fill="white" fill-opacity="0.8"/>
<path d="M60.0007 27.2156C60.0007 26.2215 60.779 25.2273 62.665 25.2273C63.0419 25.2275 63.4184 25.2508 63.7925 25.2969V25.1279C63.7925 24.4917 63.2936 24.1935 62.6849 24.1935C62.1469 24.2041 61.6236 24.3699 61.1782 24.6706L60.2502 23.766C60.9483 23.1882 61.8272 22.8718 62.7348 22.8713C63.0585 22.8285 63.3877 22.8556 63.7 22.9508C64.0123 23.0459 64.3004 23.207 64.5446 23.423C64.7889 23.639 64.9836 23.9048 65.1155 24.2024C65.2475 24.5001 65.3135 24.8225 65.3093 25.1478V29.0249H63.8225V28.4483C63.6213 28.6903 63.3653 28.8814 63.0756 29.0058C62.786 29.1302 62.4708 29.1844 62.156 29.164C61.8833 29.1817 61.6097 29.1434 61.3524 29.0515C61.0951 28.9595 60.8595 28.8158 60.6602 28.6294C60.461 28.443 60.3023 28.2178 60.194 27.9677C60.0856 27.7177 60.0301 27.4481 60.0306 27.1758L60.0007 27.2156ZM63.7925 26.7185V26.4799C63.4925 26.4274 63.189 26.3975 62.8845 26.3905C61.9764 26.3905 61.5374 26.7185 61.5374 27.2056C61.547 27.3241 61.581 27.4394 61.6373 27.5442C61.6935 27.649 61.7709 27.7412 61.8646 27.8149C61.9582 27.8886 62.0661 27.9423 62.1815 27.9726C62.2969 28.0029 62.4173 28.0091 62.5352 27.991C62.7057 27.9994 62.876 27.9724 63.0353 27.9115C63.1947 27.8507 63.3395 27.7575 63.4607 27.6377C63.5818 27.518 63.6765 27.3744 63.7388 27.2161C63.8011 27.0578 63.8296 26.8884 63.8225 26.7185H63.7925Z" fill="white" fill-opacity="0.8"/>
<path d="M66.9557 23.0601H68.4824V25.3465H70.7375V23.0601H72.2543V29.0645H70.7375V26.6389H68.4824V29.0645H66.9557V23.0601Z" fill="white" fill-opacity="0.8"/>
<path d="M73.5815 26.0522C73.5598 25.6473 73.6211 25.2423 73.7618 24.8619C73.9025 24.4816 74.1196 24.1337 74.3997 23.8397C74.6799 23.5457 75.0173 23.3117 75.3913 23.152C75.7653 22.9923 76.1681 22.9102 76.575 22.9108C76.9854 22.8957 77.3946 22.9627 77.7785 23.1079C78.1624 23.253 78.5132 23.4733 78.8102 23.7558L77.8123 24.7002C77.6514 24.5482 77.4619 24.4295 77.2546 24.351C77.0474 24.2725 76.8266 24.2358 76.605 24.2429C76.3842 24.2561 76.1684 24.3143 75.9711 24.414C75.7738 24.5136 75.5991 24.6525 75.4579 24.8221C75.3167 24.9917 75.2119 25.1884 75.15 25.4C75.0881 25.6115 75.0705 25.8335 75.0982 26.0522C75.0982 27.096 75.6969 27.8813 76.605 27.8813C77.0522 27.8935 77.4862 27.7291 77.8123 27.424L78.8102 28.4181C78.5111 28.697 78.1597 28.9143 77.7761 29.0576C77.3926 29.2009 76.9844 29.2674 76.575 29.2532C76.1663 29.2539 75.7618 29.1713 75.3864 29.0104C75.011 28.8494 74.6726 28.6136 74.3921 28.3174C74.1117 28.0212 73.8951 27.671 73.7556 27.2882C73.6162 26.9055 73.557 26.4983 73.5815 26.0919V26.0522Z" fill="white" fill-opacity="0.8"/>
<path d="M79.9377 23.0601H85.1166V29.0645H83.5899V24.3524H81.4545V29.0645H79.9377V23.0601Z" fill="white" fill-opacity="0.8"/>
<path d="M86.4238 26.052C86.4414 25.4505 86.6366 24.8676 86.9848 24.376C87.3331 23.8844 87.819 23.5059 88.3819 23.2878C88.9448 23.0697 89.5598 23.0217 90.1499 23.1497C90.74 23.2778 91.2792 23.5762 91.7001 24.0078C92.121 24.4394 92.4049 24.9849 92.5164 25.5763C92.6279 26.1676 92.562 26.7786 92.327 27.3329C92.092 27.8872 91.6982 28.3602 91.1949 28.6929C90.6916 29.0255 90.1011 29.2031 89.4972 29.2033C89.0827 29.215 88.6703 29.1408 88.2861 28.9854C87.9019 28.8299 87.5544 28.5967 87.2654 28.3004C86.9765 28.0042 86.7525 27.6513 86.6076 27.2643C86.4627 26.8772 86.4001 26.4644 86.4238 26.052ZM91.0139 26.052C90.9608 25.7662 90.8272 25.5013 90.6287 25.2884C90.4301 25.0755 90.1748 24.9232 89.8926 24.8495C89.6104 24.7758 89.313 24.7836 89.0351 24.872C88.7572 24.9605 88.5104 25.1259 88.3234 25.349C88.1364 25.5721 88.0169 25.8436 87.9791 26.1318C87.9413 26.4199 87.9865 26.7129 88.1096 26.9764C88.2328 27.2399 88.4286 27.463 88.6743 27.6197C88.92 27.7764 89.2054 27.8602 89.4972 27.8613C89.7199 27.8523 89.9382 27.797 90.1381 27.6989C90.3381 27.6007 90.5152 27.462 90.6581 27.2916C90.8009 27.1211 90.9064 26.9228 90.9677 26.7093C91.029 26.4958 91.0447 26.2719 91.0139 26.052Z" fill="white" fill-opacity="0.8"/>
<path d="M95.4044 31.2811H93.8876V23.0598H95.4044V23.7855C95.6184 23.4897 95.9027 23.2513 96.2318 23.0918C96.5609 22.9322 96.9246 22.8563 97.2903 22.8709C98.0596 22.9674 98.767 23.3404 99.2799 23.9197C99.7928 24.499 100.076 25.2449 100.076 26.0173C100.076 26.7897 99.7928 27.5356 99.2799 28.1149C98.767 28.6942 98.0596 29.0671 97.2903 29.1636C96.9371 29.1766 96.5859 29.1048 96.2664 28.9543C95.9469 28.8038 95.6683 28.579 95.4543 28.2988V31.2811H95.4044ZM96.9311 27.8514C97.2991 27.902 97.6739 27.8395 98.0054 27.6723C98.3368 27.5051 98.6092 27.2412 98.7862 26.9158C98.9631 26.5903 99.0362 26.2188 98.9957 25.8509C98.9552 25.483 98.803 25.1361 98.5595 24.8566C98.3159 24.5771 97.9926 24.3783 97.6326 24.2867C97.2727 24.195 96.8932 24.215 96.5449 24.3438C96.1967 24.4726 95.8961 24.7042 95.6834 25.0077C95.4707 25.3111 95.3559 25.672 95.3545 26.0421C95.3311 26.2656 95.354 26.4914 95.4218 26.7056C95.4897 26.9199 95.6009 27.1179 95.7488 27.2876C95.8966 27.4572 96.0778 27.5948 96.2812 27.6918C96.4846 27.7888 96.7058 27.8431 96.9311 27.8514Z" fill="white" fill-opacity="0.8"/>
<path d="M102.429 24.3524H100.613V23.0601H105.912L105.433 24.3524H103.946V29.0645H102.429V24.3524Z" fill="white" fill-opacity="0.8"/>
</svg>
