<svg width="79" height="43" viewBox="0 0 79 43" fill="none" xmlns="http://www.w3.org/2000/svg">
<path d="M50.3702 22.2099H43.7402V14.3599H45.4902V20.7099H48.8402V14.3599H50.5602V20.7099H51.8002V23.8399H50.3702V22.2099Z" fill="white"/>
<path d="M52.6893 18.2898C52.7207 17.5261 52.9758 16.7883 53.423 16.1684C53.8701 15.5484 54.4896 15.0735 55.2044 14.8027C55.9192 14.5319 56.6979 14.4772 57.4436 14.6452C58.1892 14.8133 58.8691 15.1968 59.3986 15.7481C59.9282 16.2993 60.284 16.9941 60.422 17.7459C60.56 18.4977 60.474 19.2735 60.1747 19.9769C59.8753 20.6802 59.376 21.2801 58.7385 21.702C58.1011 22.1239 57.3537 22.3492 56.5893 22.3498C56.0614 22.3574 55.5375 22.2564 55.0503 22.053C54.563 21.8496 54.1228 21.5481 53.7571 21.1673C53.3913 20.7865 53.1078 20.3346 52.9241 19.8395C52.7404 19.3445 52.6605 18.817 52.6893 18.2898ZM58.6893 18.2898C58.6227 17.8934 58.4442 17.5243 58.1748 17.2259C57.9055 16.9276 57.5565 16.7124 57.1689 16.6056C56.7814 16.4988 56.3715 16.505 55.9873 16.6234C55.6032 16.7417 55.2608 16.9673 55.0006 17.2737C54.7403 17.58 54.573 17.9543 54.5182 18.3525C54.4635 18.7507 54.5237 19.1563 54.6916 19.5215C54.8596 19.8867 55.1284 20.1963 55.4663 20.4139C55.8043 20.6315 56.1974 20.748 56.5994 20.7498C56.9003 20.7326 57.1945 20.6543 57.4642 20.5197C57.7339 20.3851 57.9734 20.1969 58.168 19.9668C58.3626 19.7366 58.5083 19.4692 58.5962 19.1809C58.6841 18.8926 58.7124 18.5894 58.6794 18.2898H58.6893Z" fill="white"/>
<path d="M61.1396 20.7101H61.6797C62.1397 20.3801 62.3497 19.1601 62.5797 16.7101C62.7297 14.7101 62.7697 14.4102 62.7697 14.4102H67.8596V20.7602H69.1197V23.8902H67.6497V22.2602H62.5896V23.8902H61.1396V20.7101ZM63.5596 20.7101H66.1197V15.8902H64.2197C64.1341 16.4091 64.0906 16.9342 64.0896 17.4601C64.0761 18.5573 63.8974 19.6462 63.5596 20.6902V20.7101Z" fill="white"/>
<path d="M70.0996 20.7101H70.6296C71.0896 20.3801 71.3096 19.1601 71.5296 16.7101C71.6896 14.7101 71.7196 14.4102 71.7196 14.4102H76.8096V20.7602H78.0696V23.8902H76.5996V22.2602H71.5396V23.8902H70.0996V20.7101ZM72.5196 20.7101H75.0696V15.8902H73.1696C73.093 16.4102 73.0496 16.9346 73.0396 17.4601C73.0283 18.5567 72.853 19.6454 72.5196 20.6902V20.7101Z" fill="white"/>
<path d="M15.43 40.4298L17.43 42.4298L29.77 30.0898C32.2034 27.6505 33.8591 24.5447 34.5282 21.1648C35.1973 17.7848 34.8496 14.2825 33.5291 11.1C32.2086 7.91762 29.9746 5.19795 27.1092 3.28461C24.2437 1.37127 20.8755 0.350098 17.43 0.350098C13.9845 0.350098 10.6163 1.37127 7.75088 3.28461C4.88546 5.19795 2.65139 7.91762 1.33089 11.1C0.0104005 14.2825 -0.337278 17.7848 0.331793 21.1648C1.00086 24.5447 2.65666 27.6505 5.09 30.0898C5.35645 30.3539 5.71489 30.5045 6.09 30.5098C6.37608 30.5175 6.65772 30.4379 6.89748 30.2816C7.13724 30.1254 7.32379 29.8998 7.43232 29.635C7.54085 29.3702 7.56621 29.0786 7.50507 28.7991C7.44393 28.5195 7.29916 28.2652 7.09 28.0698C5.05134 26.0267 3.66398 23.4252 3.10322 20.5939C2.54245 17.7627 2.83344 14.8287 3.93941 12.1628C5.04539 9.49683 6.91672 7.21849 9.31699 5.61563C11.7173 4.01277 14.5388 3.15732 17.425 3.15732C20.3113 3.15732 23.1328 4.01277 25.533 5.61563C27.9333 7.21849 29.8046 9.49683 30.9106 12.1628C32.0166 14.8287 32.3076 17.7627 31.7468 20.5939C31.186 23.4252 29.7987 26.0267 27.76 28.0698L15.43 40.4298Z" fill="white"/>
<path d="M10.3994 21.54H8.10938L16.2994 13.5H18.5894L10.3994 21.54Z" fill="white"/>
<path d="M14.7802 21.54H12.4902L20.6802 13.5H22.9802L14.7802 21.54Z" fill="white"/>
<path d="M19.3896 21.54H17.0996L25.2896 13.5H27.5896L19.3896 21.54Z" fill="white"/>
</svg>
