<svg width="170" height="194" viewBox="0 0 170 194" fill="none" xmlns="http://www.w3.org/2000/svg">
<rect y="0.557617" width="169.389" height="192.915" rx="35.066" fill="white" fill-opacity="0.5"/>
<path d="M122.083 84.4725C122.504 84.713 123.039 84.5672 123.28 84.1469L127.198 77.2986C127.438 76.8783 127.292 76.3428 126.872 76.1023C126.452 75.8619 125.916 76.0077 125.676 76.4279L122.193 82.5154L116.106 79.0328C115.685 78.7924 115.15 78.9381 114.909 79.3584C114.669 79.7786 114.815 80.3142 115.235 80.5546L122.083 84.4725ZM53.2326 83.9418C57.5569 68.0547 70.5579 58.2888 87.4527 58.2888V56.5355C69.7936 56.5355 56.0798 66.8056 51.5408 83.4814L53.2326 83.9418ZM87.4527 58.2888C104.348 58.2888 117.349 68.0547 121.673 83.9418L123.365 83.4814C118.826 66.8056 105.112 56.5355 87.4527 56.5355V58.2888Z" fill="white"/>
<path d="M52.8228 111.004C52.4026 110.764 51.867 110.909 51.6266 111.33L47.7087 118.178C47.4683 118.598 47.6141 119.134 48.0343 119.374C48.4546 119.615 48.9901 119.469 49.2306 119.049L52.7131 112.961L58.8006 116.444C59.2208 116.684 59.7564 116.538 59.9968 116.118C60.2372 115.698 60.0914 115.162 59.6712 114.922L52.8228 111.004ZM121.674 111.535C117.349 127.422 104.348 137.188 87.4535 137.188V138.941C105.113 138.941 118.826 128.671 123.365 111.995L121.674 111.535ZM87.4535 137.188C70.5587 137.188 57.5577 127.422 53.2334 111.535L51.5416 111.995C56.0806 128.671 69.7944 138.941 87.4535 138.941V137.188Z" fill="white"/>
<path d="M68.7003 106.521C66.1229 106.521 63.8349 105.574 62.2569 103.996L64.3346 101.892C65.6233 103.075 67.0434 103.68 68.7003 103.68C70.8832 103.68 72.4085 102.313 72.4085 100.577C72.4085 98.3941 70.3046 97.3947 68.2006 97.3947C67.6483 97.3947 67.0697 97.4473 66.5437 97.5525V95.3434L71.304 90.5832H63.3878V87.7954H75.2226V90.0835L70.4361 94.87V94.9226C73.1975 95.2645 75.6697 97.2895 75.6697 100.445C75.6697 103.97 72.6978 106.521 68.7003 106.521ZM85.4342 106.521C81.2526 106.521 78.6489 103.286 78.6489 99.6828C78.6489 96.974 79.885 94.5281 82.7779 90.8988L85.4605 87.4798L88.932 87.7954L83.2776 94.6333L83.3302 94.6596C84.1981 94.1336 85.2238 93.8969 86.2495 93.8969C89.2213 93.8969 92.2984 96.2113 92.2984 100.051C92.2984 103.575 89.5895 106.521 85.4342 106.521ZM85.5131 103.707C87.6433 103.707 89.0898 102.023 89.0898 100.156C89.0898 98.2363 87.6696 96.6058 85.5131 96.6058C83.3302 96.6058 81.91 98.2363 81.91 100.156C81.91 102.023 83.3565 103.707 85.5131 103.707ZM102.162 106.521C97.691 106.521 95.061 102.865 95.061 97.0003C95.061 91.1355 97.691 87.4798 102.162 87.4798C106.633 87.4798 109.263 91.1355 109.263 97.0003C109.263 102.865 106.633 106.521 102.162 106.521ZM102.162 103.707C104.766 103.707 106.054 101.103 106.054 97.0003C106.054 92.8975 104.766 90.2939 102.162 90.2939C99.5582 90.2939 98.2696 92.8975 98.2696 97.0003C98.2696 101.103 99.5582 103.707 102.162 103.707Z" fill="white"/>
</svg>
