<svg width="41" height="40" viewBox="0 0 41 40" fill="none" xmlns="http://www.w3.org/2000/svg">
<path d="M34.25 21.2501C33.9185 21.2501 33.6006 21.3818 33.3661 21.6162C33.1317 21.8506 33 22.1686 33 22.5001C32.9981 24.1571 32.339 25.7457 31.1673 26.9174C29.9956 28.0891 28.407 28.7482 26.75 28.7501C24.9036 28.7492 23.1223 29.4322 21.75 30.6675V18.7501H26.75C27.0815 18.7501 27.3995 18.6184 27.6339 18.384C27.8683 18.1496 28 17.8316 28 17.5001C28 17.1686 27.8683 16.8506 27.6339 16.6162C27.3995 16.3818 27.0815 16.2501 26.75 16.2501H21.75V12.3171C22.7571 12.0169 23.6224 11.3642 24.1878 10.4783C24.7532 9.59251 24.9809 8.53277 24.8292 7.49289C24.6775 6.45302 24.1565 5.50249 23.3616 4.81513C22.5667 4.12778 21.5509 3.74951 20.5 3.74951C19.4491 3.74951 18.4333 4.12778 17.6384 4.81513C16.8435 5.50249 16.3225 6.45302 16.1708 7.49289C16.0191 8.53277 16.2468 9.59251 16.8122 10.4783C17.3776 11.3642 18.2429 12.0169 19.25 12.3171V16.2501H14.25C13.9185 16.2501 13.6005 16.3818 13.3661 16.6162C13.1317 16.8506 13 17.1686 13 17.5001C13 17.8316 13.1317 18.1496 13.3661 18.384C13.6005 18.6184 13.9185 18.7501 14.25 18.7501H19.25V30.6675C17.8777 29.4322 16.0964 28.7492 14.25 28.7501C12.593 28.7482 11.0044 28.0891 9.83268 26.9174C8.66098 25.7457 8.0019 24.1571 8 22.5001C8 22.1686 7.8683 21.8506 7.63388 21.6162C7.39946 21.3818 7.08152 21.2501 6.75 21.2501C6.41848 21.2501 6.10054 21.3818 5.86612 21.6162C5.6317 21.8506 5.5 22.1686 5.5 22.5001C5.5026 24.8199 6.42531 27.044 8.06569 28.6844C9.70607 30.3248 11.9302 31.2475 14.25 31.2501C15.5756 31.2516 16.8465 31.7789 17.7839 32.7162C18.7212 33.6536 19.2485 34.9245 19.25 36.2501C19.25 36.5816 19.3817 36.8996 19.6161 37.134C19.8505 37.3684 20.1685 37.5001 20.5 37.5001C20.8315 37.5001 21.1495 37.3684 21.3839 37.134C21.6183 36.8996 21.75 36.5816 21.75 36.2501C21.7515 34.9245 22.2788 33.6536 23.2161 32.7162C24.1535 31.7789 25.4244 31.2516 26.75 31.2501C29.0698 31.2475 31.2939 30.3248 32.9343 28.6844C34.5747 27.044 35.4974 24.8199 35.5 22.5001C35.5 22.1686 35.3683 21.8506 35.1339 21.6162C34.8994 21.3818 34.5815 21.2501 34.25 21.2501ZM18.625 8.12509C18.625 7.75425 18.735 7.39174 18.941 7.0834C19.147 6.77506 19.4399 6.53473 19.7825 6.39282C20.1251 6.2509 20.5021 6.21377 20.8658 6.28612C21.2295 6.35847 21.5636 6.53704 21.8258 6.79927C22.088 7.06149 22.2666 7.39558 22.339 7.7593C22.4113 8.12301 22.3742 8.50001 22.2323 8.84262C22.0904 9.18523 21.85 9.47807 21.5417 9.6841C21.2334 9.89012 20.8708 10.0001 20.5 10.0001C20.0029 9.99955 19.5263 9.80183 19.1748 9.45032C18.8233 9.0988 18.6255 8.62221 18.625 8.12509Z" fill="#74BEF3"/>
</svg>
