<svg width="40" height="40" viewBox="0 0 40 40" fill="none" xmlns="http://www.w3.org/2000/svg">
<circle opacity="0.5" cx="20" cy="20" r="20" fill="#9794A6"/>
<path fill-rule="evenodd" clip-rule="evenodd" d="M20 14C16.69 14 14 16.69 14 20H17L13 24L9 20H12C12 15.58 15.58 12 20 12C21.57 12 23.03 12.46 24.26 13.24L22.8 14.7C21.97 14.25 21.01 14 20 14ZM23 20L27 16L31 20H28C28 24.42 24.42 28 20 28C18.43 28 16.97 27.54 15.74 26.76L17.2 25.3C18.03 25.75 18.99 26 20 26C23.31 26 26 23.31 26 20H23Z" fill="white"/>
</svg>
