<svg width="40" height="40" viewBox="0 0 40 40" fill="none" xmlns="http://www.w3.org/2000/svg">
<path d="M34.9912 23.304C35.0337 23.4626 35.0445 23.628 35.0231 23.7907C35.0017 23.9535 34.9484 24.1104 34.8663 24.2525C34.7842 24.3947 34.6749 24.5193 34.5447 24.6192C34.4145 24.7192 34.2658 24.7924 34.1073 24.8349L30.1921 25.884L31.2412 29.7991C31.2839 29.9577 31.2948 30.1232 31.2735 30.286C31.2522 30.4489 31.199 30.606 31.1169 30.7483C31.0348 30.8905 30.9255 31.0153 30.7953 31.1153C30.665 31.2153 30.5162 31.2887 30.3576 31.3312C30.1989 31.3737 30.0334 31.3845 29.8706 31.363C29.7077 31.3415 29.5507 31.2882 29.4085 31.206C29.2663 31.1238 29.1417 31.0143 29.0418 30.8839C28.9419 30.7535 28.8687 30.6047 28.8263 30.446L27.5877 25.8236L21.2509 22.165V29.4822L24.6347 32.8661C24.8692 33.1005 25.0009 33.4184 25.0009 33.75C25.0009 34.0815 24.8692 34.3994 24.6348 34.6339C24.4004 34.8683 24.0825 35 23.7509 35C23.4194 35.0001 23.1015 34.8684 22.867 34.634L20.0009 31.7678L17.1347 34.634C16.9003 34.8684 16.5824 35.0001 16.2508 35.0001C15.9193 35 15.6014 34.8683 15.3669 34.6339C15.1325 34.3995 15.0008 34.0815 15.0009 33.75C15.0009 33.4184 15.1326 33.1005 15.367 32.8661L18.7509 29.4822V22.165L12.414 25.8236L11.1754 30.446C11.0896 30.7663 10.8801 31.0393 10.593 31.2051C10.3059 31.3708 9.96474 31.4158 9.64451 31.33C9.32428 31.2442 9.05125 31.0347 8.88548 30.7476C8.71971 30.4605 8.67477 30.1193 8.76057 29.7991L9.80969 25.884L5.89451 24.8349C5.73581 24.7926 5.58701 24.7194 5.45662 24.6195C5.32622 24.5196 5.2168 24.395 5.1346 24.2528C5.05239 24.1105 4.99902 23.9535 4.97754 23.7907C4.95605 23.6278 4.96687 23.4624 5.00938 23.3037C5.05189 23.145 5.12525 22.9963 5.22527 22.866C5.32529 22.7357 5.45001 22.6264 5.5923 22.5444C5.73459 22.4623 5.89166 22.4091 6.05452 22.3877C6.21739 22.3664 6.38286 22.3774 6.54148 22.4201L11.1641 23.6586L17.501 20L11.1641 16.3414L6.54148 17.58C6.38286 17.6227 6.21739 17.6336 6.05452 17.6123C5.89166 17.591 5.73459 17.5378 5.5923 17.4557C5.45001 17.3736 5.32529 17.2643 5.22527 17.1341C5.12525 17.0038 5.05189 16.855 5.00938 16.6964C4.96687 16.5377 4.95605 16.3722 4.97754 16.2094C4.99902 16.0465 5.05239 15.8895 5.1346 15.7473C5.2168 15.6051 5.32623 15.4805 5.45662 15.3806C5.58701 15.2807 5.73581 15.2075 5.89451 15.1651L9.80969 14.1161L8.76057 10.201C8.71791 10.0424 8.70692 9.87689 8.72825 9.71403C8.74957 9.55116 8.80279 9.39409 8.88485 9.2518C8.96691 9.10951 9.07622 8.98479 9.20651 8.88477C9.3368 8.78475 9.48553 8.71139 9.64419 8.66888C9.80285 8.62638 9.96834 8.61555 10.1312 8.63704C10.294 8.65853 10.451 8.7119 10.5933 8.7941C10.7355 8.8763 10.8601 8.98573 10.96 9.11612C11.0599 9.24651 11.1331 9.39531 11.1754 9.55401L12.414 14.1765L18.7509 17.835V10.5178L15.367 7.13397C15.1326 6.89956 15.0009 6.58161 15.0009 6.25008C15.0008 5.91855 15.1325 5.6006 15.3669 5.36616C15.6014 5.13173 15.9193 5.00001 16.2508 5C16.5824 4.99999 16.9003 5.13167 17.1347 5.36609L20.0009 8.2323L22.867 5.36609C22.9831 5.25002 23.1209 5.15795 23.2726 5.09513C23.4242 5.03232 23.5868 4.99999 23.7509 5C23.9151 5.00001 24.0776 5.03235 24.2293 5.09517C24.381 5.158 24.5188 5.25008 24.6348 5.36616C24.7509 5.48224 24.843 5.62005 24.9058 5.77171C24.9686 5.92338 25.0009 6.08593 25.0009 6.25008C25.0009 6.41424 24.9686 6.57679 24.9057 6.72844C24.8429 6.8801 24.7508 7.0179 24.6347 7.13397L21.2509 10.5178V17.835L27.5877 14.1765L28.8263 9.55401C28.8688 9.39545 28.9421 9.2468 29.042 9.11657C29.142 8.98633 29.2666 8.87706 29.4087 8.79497C29.5509 8.71289 29.7078 8.65962 29.8706 8.63818C30.0333 8.61675 30.1987 8.62759 30.3573 8.67007C30.5158 8.71255 30.6645 8.78585 30.7947 8.88577C30.9249 8.9857 31.0342 9.1103 31.1163 9.25246C31.1984 9.39462 31.2516 9.55155 31.2731 9.7143C31.2945 9.87705 31.2837 10.0424 31.2412 10.201L30.1921 14.1161L34.1073 15.1651C34.266 15.2075 34.4148 15.2807 34.5451 15.3806C34.6755 15.4805 34.785 15.6051 34.8672 15.7473C34.9494 15.8895 35.0027 16.0465 35.0242 16.2094C35.0457 16.3722 35.0349 16.5377 34.9924 16.6964C34.9499 16.855 34.8765 17.0037 34.7765 17.134C34.6765 17.2643 34.5518 17.3736 34.4095 17.4557C34.2672 17.5378 34.1101 17.591 33.9472 17.6123C33.7844 17.6336 33.6189 17.6226 33.4603 17.58L28.8377 16.3414L22.5008 20L28.8377 23.6586L33.4603 22.4201C33.7805 22.3343 34.1217 22.3792 34.4088 22.545C34.6959 22.7108 34.9054 22.9838 34.9912 23.304Z" fill="#74BEF3"/>
</svg>
